<svg xmlns="http://www.w3.org/2000/svg" width="62" height="18" viewBox="0 0 62 18" fill="none">
  <rect x="2" y="2" width="14" height="14" rx="2.25" fill="white"></rect>
  <path d="M5.40452 9.60478C4.91211 9.64761 4.44033 9.82286 4.03892 10.1121C2.96155 11.0504 3.60799 12.7662 5.78483 12.7662C7.05075 12.7662 8.31665 11.9559 9.30946 10.6593C7.89594 9.96944 6.69845 9.47567 5.40452 9.6037V9.60478ZM13.5285 10.7906C14.3304 11.0987 15.1573 11.3369 16 11.5026V4.24303C15.9997 3.94809 15.9415 3.65611 15.8286 3.38375C15.7158 3.11139 15.5506 2.86399 15.3424 2.65569C15.1341 2.44739 14.8871 2.28228 14.6152 2.16977C14.3433 2.05726 14.052 1.99958 13.7579 2H4.24258C3.94844 1.99951 3.65708 2.05714 3.38516 2.16962C3.11324 2.28209 2.86607 2.4472 2.65781 2.6555C2.44955 2.86381 2.28427 3.11123 2.1714 3.38362C2.05853 3.65602 2.00028 3.94805 2 4.24303V13.7575C2.00042 14.0524 2.05877 14.3444 2.17169 14.6167C2.28462 14.889 2.44993 15.1363 2.65817 15.3445C2.86641 15.5528 3.1135 15.7178 3.38536 15.8303C3.65721 15.9428 3.9485 16.0004 4.24258 16H13.7579C14.052 16.0005 14.3433 15.9429 14.6152 15.8304C14.887 15.718 15.1341 15.5529 15.3423 15.3447C15.5505 15.1364 15.7158 14.889 15.8286 14.6167C15.9415 14.3444 15.9997 14.0524 16 13.7575V13.6635C16 13.6635 12.3585 12.1455 10.5194 11.2611C9.28631 12.7781 7.69501 13.6992 6.04339 13.6992C3.24975 13.6992 2.30167 11.2546 3.62416 9.64746C4.03054 9.19754 4.57087 8.89117 5.1648 8.77391C6.3553 8.48165 8.25148 8.95651 10.0275 9.5432C10.3583 8.93097 10.6227 8.28495 10.8162 7.61621H5.34093V7.06193H8.16369V6.06792H4.74461V5.5131H8.16369V4.09501C8.16316 4.06311 8.1691 4.03144 8.18115 4.00192C8.19319 3.97239 8.21109 3.94563 8.23376 3.92325C8.25642 3.90087 8.28337 3.88334 8.31299 3.87173C8.34262 3.86011 8.37428 3.85466 8.40607 3.85568H9.78568V5.51256H13.1665V6.06792H9.78568V7.06193H12.5454C12.2967 8.09604 11.9033 9.08964 11.377 10.0132C12.2146 10.3157 12.9661 10.6031 13.5263 10.7906H13.5285Z" fill="#2283FD"></path>
  <path d="M25.575 15.7472C25.5697 15.6794 25.5789 15.6112 25.602 15.5472C25.602 15.5152 25.802 14.6942 25.972 14.1842C25.9979 14.1322 26.009 14.074 26.004 14.0162C26.005 13.9318 25.9847 13.8486 25.945 13.7742C25.9047 13.6996 25.8466 13.636 25.776 13.5892C24.9462 13.0403 24.2603 12.3002 23.776 11.4311C23.2932 10.5645 23.0273 9.59388 23.001 8.60217C23.001 4.97217 26.576 2.00219 31.014 2.00219C32.2451 1.97443 33.4679 2.21072 34.6 2.69518C35.7291 3.17754 36.7408 3.89794 37.566 4.80718L29.466 8.37817C29.3729 8.40942 29.276 8.42792 29.178 8.43316C29.0253 8.42914 28.8772 8.38045 28.752 8.29315L27.037 7.07318C26.9842 7.04203 26.9257 7.02194 26.865 7.01415C26.7966 7.01519 26.7313 7.04283 26.683 7.09118C26.6592 7.11512 26.6404 7.1435 26.6277 7.17474C26.615 7.20598 26.6087 7.23947 26.609 7.27319C26.6048 7.31252 26.6143 7.3521 26.636 7.38519L28.096 10.5602L28.123 10.6452C28.1668 10.7289 28.2323 10.7991 28.3128 10.8486C28.3932 10.898 28.4856 10.9248 28.58 10.9261C28.66 10.9199 28.7384 10.9003 28.812 10.8682L28.867 10.8092L38.082 5.56719C38.6724 6.4796 38.9905 7.54141 38.999 8.62817C38.999 12.2542 35.419 15.2362 30.987 15.2362C30.1078 15.2294 29.2334 15.1053 28.387 14.8672C28.3123 14.8424 28.2334 14.8329 28.155 14.8392C28.0049 14.8339 27.8567 14.8732 27.729 14.9521L25.983 15.9441C25.9437 15.9794 25.8928 15.999 25.84 15.9992C25.8058 16.0003 25.7718 15.9945 25.74 15.9822C25.7083 15.9691 25.6791 15.9505 25.654 15.9272C25.6301 15.9028 25.6108 15.8744 25.597 15.8432C25.5836 15.8129 25.5761 15.7803 25.575 15.7472Z" fill="#41B035"></path>
  <path d="M37.542 4.82031L29.466 8.38129C29.3729 8.41254 29.2761 8.43104 29.178 8.43628C29.0254 8.43226 28.8773 8.38363 28.752 8.29633L27.037 7.07629C26.9843 7.04515 26.9258 7.02506 26.865 7.01727C26.7966 7.0183 26.7314 7.04595 26.683 7.0943C26.6593 7.11824 26.6405 7.14662 26.6278 7.17786C26.6151 7.2091 26.6087 7.24258 26.609 7.27631C26.6048 7.31564 26.6143 7.35522 26.636 7.38831L28.096 10.5633L28.124 10.6483C28.1675 10.7307 28.2325 10.7998 28.312 10.8483C28.3928 10.8978 28.4853 10.9247 28.58 10.9263C28.66 10.92 28.7385 10.9004 28.812 10.8683L28.867 10.8093L38.082 5.56732" fill="white"></path>
  <path d="M47.566 3.49316H52.0263C52.6545 3.49316 53.0315 3.99094 52.8849 4.61316L50.8118 13.3865C50.6652 14.0087 50.037 14.5065 49.4087 14.5065H44.9484C44.3201 14.5065 43.9432 14.0087 44.0898 13.3865L46.1629 4.61316C46.3095 3.99094 46.9377 3.49316 47.566 3.49316Z" fill="#DE3232"></path>
  <path d="M51.6493 3.49316H56.7797C57.408 3.49316 57.1148 3.99094 56.9682 4.61316L54.8951 13.3865C54.7485 14.0087 54.7904 14.5065 54.1621 14.5065H49.0526C48.4244 14.5065 48.0475 14.0087 48.194 13.3865L50.2672 4.61316C50.4138 3.99094 51.021 3.49316 51.6493 3.49316Z" fill="#004889"></path>
  <path d="M56.5913 3.49316H61.0517C61.6799 3.49316 62.0569 3.99094 61.9103 4.61316L59.8372 13.3865C59.6906 14.0087 59.0624 14.5065 58.4341 14.5065H53.9738C53.3455 14.5065 52.9686 14.0087 53.1152 13.3865L55.1883 4.61316C55.3349 3.99094 55.9631 3.49316 56.5913 3.49316Z" fill="#007F89"></path>
  <path d="M57.3109 9.98173L56.7664 11.7447H56.913L56.8083 12.118H56.6617L56.6199 12.2425H56.0963L56.1382 12.118H55.0912L55.1959 11.7862H55.3006L55.8451 9.98173L55.9498 9.6084H56.4733L56.4105 9.79506C56.4105 9.79506 56.557 9.69136 56.6827 9.67062C56.8083 9.62914 57.5831 9.62914 57.5831 9.62914L57.4784 9.98173H57.3109ZM56.3895 9.98173L56.2429 10.438C56.2429 10.438 56.3895 10.3758 56.4942 10.3551C56.578 10.3343 56.7036 10.3343 56.7036 10.3343L56.8083 10.0025H56.3895V9.98173ZM56.1801 10.6662L56.0335 11.1432C56.0335 11.1432 56.201 11.0603 56.2848 11.0395C56.3686 11.0188 56.4942 10.998 56.4942 10.998L56.5989 10.6662H56.1801ZM55.8451 11.7654H56.2639L56.3895 11.3714H55.9707L55.8451 11.7654Z" fill="#FEFEFE"></path>
  <path d="M57.5621 9.62914H58.1275V9.83655C58.1275 9.87803 58.1484 9.87803 58.2112 9.87803H58.3159L58.2112 10.2099H57.8971C57.6249 10.2306 57.5411 10.1269 57.5411 10.0025L57.5621 9.62914ZM57.6249 11.2469H57.0804L57.1642 10.9358H57.7715L57.8552 10.6662H57.248L57.3527 10.3136H59.0489L58.9442 10.6662H58.3997L58.3159 10.9358H58.8813L58.7976 11.2469H58.1903L58.0856 11.3714H58.3369L58.3997 11.7447C58.3997 11.7862 58.3997 11.8069 58.4206 11.8277C58.4416 11.8484 58.5044 11.8484 58.5463 11.8484H58.63L58.5253 12.2217H58.2112C58.1484 12.2217 58.1065 12.1803 58.0646 12.1595C58.0228 12.1388 57.9809 12.0973 57.9599 12.0351L57.8971 11.6617L57.6249 12.0351C57.5411 12.1595 57.4155 12.2425 57.2061 12.2425H56.8082L56.9129 11.9106H57.0595C57.1014 11.9106 57.1433 11.8899 57.1642 11.8899C57.1851 11.8691 57.227 11.8691 57.248 11.8277L57.6249 11.2469ZM51.7406 10.4173H53.1645L53.0598 10.7491H52.4944L52.4107 11.0395H52.997L52.8923 11.3921H52.306L52.1594 11.8484C52.1384 11.8899 52.306 11.9106 52.3478 11.9106L52.641 11.8691L52.5154 12.2425H51.8662C51.8034 12.2425 51.7824 12.2425 51.7196 12.2217C51.6568 12.201 51.6359 12.1803 51.6149 12.1388C51.594 12.0973 51.5521 12.0765 51.573 11.9936L51.7615 11.3714H51.4474L51.5521 11.0188H51.8871L51.9709 10.7284H51.6568L51.7406 10.4173ZM52.7038 9.81581H53.2902L53.1645 10.1477H52.3688L52.285 10.2306C52.2431 10.2721 52.2431 10.2514 52.1803 10.2721C52.1384 10.2928 52.0337 10.3343 51.9081 10.3343H51.6568L51.7615 10.0025H51.8453C51.9081 10.0025 51.95 10.0025 51.9709 9.98173C51.9918 9.96099 52.0337 9.94025 52.0547 9.87803L52.2013 9.6084H52.7876L52.7038 9.81581ZM53.5205 9.62914H54.0231L53.9603 9.85729C53.9603 9.85729 54.1069 9.73284 54.2325 9.69136C54.3372 9.64988 54.5885 9.6084 54.5885 9.6084H55.3842L55.112 10.5002C55.0701 10.6454 55.0073 10.7491 54.9864 10.7906C54.9654 10.8321 54.9235 10.8736 54.8607 10.9151C54.7979 10.9565 54.7351 10.9773 54.6723 10.9773H53.6462L53.4368 11.6825C53.4158 11.7447 53.4158 11.7862 53.4158 11.8069C53.4368 11.8277 53.4577 11.8484 53.4996 11.8484L53.8346 11.8069L53.709 12.201H53.0598C52.997 12.201 52.9342 12.201 52.8923 12.1595C52.8504 12.118 52.8085 12.0973 52.8085 12.0558C52.8085 12.0143 52.8295 11.9521 52.8504 11.8691L53.5205 9.62914ZM54.5885 10.521H53.7718L53.7299 10.6869H54.5257L54.5885 10.521ZM53.8137 10.3758C53.8137 10.3758 53.9812 10.2306 54.2534 10.1891C54.3163 10.1684 54.7141 10.1891 54.7141 10.1891L54.777 10.0025H53.9603L53.8137 10.3758Z" fill="#FEFEFE"></path>
  <path d="M54.9865 11.0811L54.9446 11.2886C54.9237 11.3508 54.9027 11.413 54.8608 11.4545C54.798 11.496 54.7352 11.5374 54.5886 11.5374L54.3164 11.5582V11.8071C54.3164 11.8693 54.3373 11.8693 54.3373 11.89C54.3583 11.9108 54.3583 11.9108 54.3792 11.9108H54.463L54.7352 11.89L54.6305 12.2426H54.3373C54.1279 12.2426 53.9604 12.2426 53.9185 12.2012C53.8766 12.1597 53.8557 12.1389 53.8557 12.056L53.8766 11.1019H54.3583V11.2886H54.4839C54.5258 11.2886 54.5467 11.2886 54.5677 11.2678L54.6095 11.2263L54.6514 11.0811H54.9865ZM48.076 6.31078C48.076 6.373 47.7619 7.78337 47.7619 7.78337C47.6991 8.07374 47.6572 8.28115 47.4897 8.40559C47.385 8.48856 47.2803 8.5093 47.1547 8.5093C46.9452 8.5093 46.8405 8.40559 46.8196 8.21893V8.15671L46.8824 7.78337C46.8824 7.78337 47.2175 6.49745 47.2594 6.33152V6.31078H46.5055C46.5055 6.33152 46.4846 6.39374 46.4846 6.39374L46.1495 7.84559L46.1076 7.97004L46.0448 8.36411C46.0448 8.48856 46.0657 8.57152 46.1076 8.65448C46.2542 8.92411 46.694 8.94485 46.9452 8.94485C47.2594 8.94485 47.5525 8.88263 47.7619 8.75819C48.1179 8.55078 48.2017 8.23967 48.2855 7.97004L48.3273 7.82485C48.3273 7.82485 48.6624 6.49745 48.7252 6.31078V6.29004C48.2645 6.31078 48.1389 6.31078 48.076 6.31078ZM49.9398 8.94485H49.3744L49.3534 8.92411C49.3744 8.82041 49.3953 8.73745 49.4163 8.63374L49.4581 8.5093C49.5 8.30189 49.5628 8.053 49.5628 7.99078C49.5628 7.9493 49.5838 7.84559 49.4581 7.84559C49.3953 7.84559 49.3534 7.86634 49.2906 7.88708C49.2487 7.99078 49.1859 8.30189 49.165 8.44708C49.1021 8.73745 49.1021 8.77893 49.0603 8.92411L49.0393 8.94485H48.453L48.432 8.92411C48.4739 8.73745 48.5158 8.57152 48.5577 8.38485C48.6624 7.90782 48.7043 7.72115 48.7252 7.47226H48.7671C49.0184 7.43078 49.0812 7.43078 49.3744 7.36856L49.3953 7.3893L49.3534 7.53448C49.3953 7.51374 49.4372 7.47226 49.5 7.45152C49.6257 7.3893 49.7722 7.36856 49.856 7.36856C49.9817 7.36856 50.1073 7.41004 50.1701 7.53448C50.2329 7.65893 50.1911 7.80411 50.1073 8.11522L50.0654 8.26041C50.0026 8.59226 49.9817 8.65448 49.9398 8.88263V8.94485ZM50.8612 8.94485H50.2539V8.92411C50.2958 8.79967 50.3167 8.75819 50.3167 8.71671C50.3376 8.67522 50.3586 8.63374 50.3795 8.48856C50.4214 8.32263 50.4423 8.19819 50.4633 8.09448C50.4842 7.99078 50.4842 7.90782 50.5052 7.80411H50.5261C50.6518 7.78337 50.7355 7.78337 50.8193 7.76263C50.903 7.74189 50.9868 7.74189 51.1334 7.70041V7.74189C51.1124 7.84559 51.0915 7.9493 51.0496 8.053C51.0287 8.15671 51.0077 8.26041 50.9659 8.36411C50.924 8.59226 50.903 8.67522 50.8821 8.73745C50.8612 8.79967 50.8612 8.82041 50.8402 8.94485H50.8612ZM52.8715 8.17745C52.9552 7.84559 52.8924 7.67967 52.8086 7.57597C52.683 7.43078 52.4945 7.3893 52.2642 7.3893C52.1385 7.3893 51.8244 7.41004 51.5941 7.61745C51.4266 7.78337 51.3428 7.99078 51.3009 8.19819C51.259 8.40559 51.1962 8.77893 51.5522 8.92411C51.6569 8.96559 51.8244 8.98634 51.9082 8.98634C52.1595 8.98634 52.4317 8.92411 52.6202 8.71671C52.7877 8.53004 52.8505 8.28115 52.8715 8.17745ZM52.2851 8.15671C52.2642 8.21893 52.2223 8.42634 52.1595 8.5093C52.1176 8.57152 52.0548 8.613 51.992 8.613C51.971 8.613 51.8663 8.613 51.8663 8.44708C51.8663 8.36411 51.8873 8.28115 51.9082 8.19819C51.971 7.9493 52.0338 7.72115 52.2223 7.72115C52.327 7.74189 52.3479 7.90782 52.2851 8.15671ZM58.3579 8.96559H57.7506L57.7297 8.94485C57.7925 8.69596 57.8763 8.44708 57.9182 8.17745C58.0019 7.84559 58.0229 7.70041 58.0438 7.51374L58.0648 7.493C58.337 7.45152 58.3998 7.45152 58.693 7.3893V7.41004C58.6511 7.61745 58.5883 7.82485 58.5464 8.03226C58.4417 8.46782 58.3998 8.69596 58.3579 8.92411V8.96559Z" fill="#FEFEFE"></path>
  <path d="M58.5043 8.21967C58.5881 7.88782 58.274 8.19893 58.2111 8.07449C58.1274 7.90856 58.1902 7.55597 57.8761 7.43152C57.7504 7.39004 57.4782 7.45226 57.2269 7.65967C57.0594 7.80486 56.9756 8.033 56.9338 8.21967C56.8919 8.42708 56.8291 8.80041 57.185 8.92486C57.2897 8.96634 57.3945 8.98708 57.4992 8.98708C57.8551 8.96634 58.1064 8.44782 58.3158 8.24041C58.4415 8.09523 58.4624 8.32338 58.5043 8.21967ZM57.9599 8.19893C57.9389 8.26115 57.897 8.46856 57.8342 8.55152C57.7923 8.61375 57.6876 8.65523 57.6248 8.65523C57.6039 8.65523 57.4992 8.65523 57.4992 8.4893C57.4992 8.40634 57.5201 8.32338 57.541 8.24041C57.562 7.99152 57.6457 7.78412 57.8133 7.78412C57.9599 7.78412 58.0227 7.9293 57.9599 8.19893ZM54.3999 8.9456H53.8345V8.92486C53.8555 8.82115 53.8764 8.73819 53.8974 8.63449L53.9392 8.51004C53.9811 8.30263 54.0439 8.05375 54.0439 7.99152C54.0439 7.95004 54.0649 7.84634 53.9392 7.84634C53.8764 7.84634 53.8345 7.86708 53.7717 7.88782C53.7298 7.99152 53.667 8.30263 53.6461 8.44782C53.5832 8.73819 53.5832 8.77967 53.5414 8.92486L53.5204 8.9456H52.9341L52.9131 8.92486C52.955 8.73819 52.9969 8.57226 53.0388 8.3856C53.1435 7.90856 53.1854 7.72189 53.2063 7.473L53.2273 7.45226C53.4785 7.41078 53.5414 7.41078 53.8345 7.34856L53.8555 7.3693L53.8136 7.51449C53.8555 7.49375 53.8974 7.45226 53.9602 7.43152C54.0858 7.3693 54.2324 7.34856 54.3162 7.34856C54.4418 7.34856 54.5675 7.39004 54.6303 7.51449C54.6931 7.63893 54.6512 7.78412 54.5675 8.09523L54.5256 8.24041C54.4628 8.57226 54.4418 8.63449 54.3999 8.86263V8.9456ZM56.5987 7.12041C56.5568 7.28634 56.4521 7.45226 56.2846 7.51449C56.159 7.57671 56.0124 7.57671 55.8448 7.57671H55.7401V7.53523L55.9286 6.74708V6.66412H56.0124C56.0124 6.66412 56.3893 6.7056 56.4102 6.7056C56.5778 6.78856 56.6406 6.93375 56.5987 7.12041ZM56.3474 6.31152H55.4051C55.4051 6.353 55.3841 6.41523 55.3841 6.41523L55.2166 7.20338C55.2166 7.20338 54.7978 8.88338 54.7769 8.96634H55.447C55.4679 8.88338 55.5726 8.40634 55.5726 8.40634L55.6564 8.05375C55.6564 8.05375 55.6773 8.01226 55.7192 8.01226H55.7611C56.1171 8.01226 56.5359 8.01226 56.8709 7.78412C57.0803 7.61819 57.2479 7.39004 57.3107 7.09967C57.3316 7.03745 57.3316 6.93375 57.3316 6.85078C57.3316 6.74708 57.3107 6.62263 57.2479 6.53967C57.0594 6.31152 56.7243 6.31152 56.3474 6.31152ZM51.0913 7.59745C51.2379 7.49375 51.2588 7.34856 51.1332 7.28634C51.0075 7.20338 50.7772 7.24486 50.6306 7.32782C50.484 7.43152 50.4631 7.57671 50.5887 7.63893C50.7353 7.72189 50.9447 7.70115 51.0913 7.59745ZM60.5774 7.41078L60.5565 7.39004C60.2843 7.45226 60.2214 7.45226 59.9702 7.49375L59.9492 7.51449V7.53523C59.7607 7.97078 59.7608 7.86708 59.6142 8.21967V8.17819L59.5723 7.45226L59.5513 7.43152C59.2582 7.49375 59.2582 7.49375 58.9859 7.53523L58.965 7.55597V7.57671C59.0069 7.74263 58.9859 7.70115 59.0278 7.97078C59.0488 8.09523 59.0697 8.24041 59.0697 8.36486C59.0906 8.57226 59.1116 8.69671 59.1535 9.00782C58.965 9.29819 58.9231 9.42263 58.7556 9.67152L58.63 9.85819C58.609 9.85819 58.609 9.85819 58.5881 9.87893C58.5671 9.87893 58.5462 9.89967 58.5043 9.89967H58.4415L58.3368 10.2315H58.6928C58.9022 10.2315 59.0278 10.1278 59.0906 10.0034L60.5774 7.41078Z" fill="#FEFEFE"></path>
</svg>