<svg xmlns="http://www.w3.org/2000/svg" xmlns:xlink="http://www.w3.org/1999/xlink" width="31.003" height="31.003" viewBox="0 0 31.003 31.003">
  <defs>
    <style>.a{fill:#fff;stroke:#707070;}.b{clip-path:url(#a);}.c{fill:#ffca6b;}.d{fill:#64a6f0;}.e{fill:#f2cac1;}.f{fill:#f3b55e;}.g{fill:#2a3244;}</style>
    <clipPath id="a">
      <path class="a" d="M15.5,0A15.5,15.5,0,1,1,0,15.5,15.5,15.5,0,0,1,15.5,0Z"></path>
    </clipPath>
  </defs>
  <g class="b">
    <g transform="translate(6.631 5.889)">
      <path class="c" d="M289.531,791v3.881h-12.2V791c1.109,0,1.663-1.663,1.663-1.663h8.871S288.422,791,289.531,791Z" transform="translate(-274.561 -768.82)"></path>
      <path class="d" d="M208.633,623.1v5.544h-2.218v-3.881c-1.109,0-1.663-1.663-1.663-1.663v-4.4A4.435,4.435,0,0,1,208.633,623.1Zm-3.881-4.4v4.4h-8.871v-4.4a4.574,4.574,0,0,1,.554-.033h.554c0,.92,1.486,1.663,3.327,1.663s3.327-.743,3.327-1.663h.554A4.575,4.575,0,0,1,204.752,618.7Zm-8.871,0v4.4s-.554,1.663-1.663,1.663v3.881H192V623.1A4.435,4.435,0,0,1,195.881,618.7Z" transform="translate(-191.445 -602.589)"></path>
      <path class="e" d="M285.65,305.874a1.112,1.112,0,0,0,1.109,1.109c0,.92-1.486,1.663-3.327,1.663s-3.327-.743-3.327-1.663a1.112,1.112,0,0,0,1.109-1.109v-1.663l.017-.033a4.415,4.415,0,0,0,4.4,0l.017.033Zm2.772-7.208a1.109,1.109,0,1,1,0,2.218h-.554l-.033-.006a4.483,4.483,0,0,0,.033-.549v-1.663Zm-9.392,2.212-.033.006h-.554a1.109,1.109,0,1,1,0-2.218H279v1.663A4.489,4.489,0,0,0,279.03,300.879Z" transform="translate(-274.561 -290.905)"></path>
      <path class="e" d="M350.2,277.888v1.663a4.483,4.483,0,0,1-.033.549,4.432,4.432,0,0,1-6.6,3.3,4.342,4.342,0,0,1-.937-.71,4.426,4.426,0,0,1-1.3-3.138v-2.218H350.2Z" transform="translate(-336.898 -270.126)"></path>
      <path class="f" d="M267.643,213.333V215H256l1.663-1.663Z" transform="translate(-253.782 -207.789)"></path>
      <path class="c" d="M329.979,26.323H320a4.99,4.99,0,1,1,9.979,0Z" transform="translate(-316.119 -20.779)"></path>
      <path class="g" d="M184.527,6.1h-9.98a.554.554,0,0,1-.554-.554,5.544,5.544,0,1,1,11.088,0,.554.554,0,0,1-.554.554ZM175.136,4.99h8.8a4.435,4.435,0,0,0-8.8,0Zm12.717,21.623H171.221a.554.554,0,0,1-.554-.554V20.514a5,5,0,0,1,4.99-4.99h.554a.554.554,0,0,0,.554-.554V13.306h1.109v1.663a1.663,1.663,0,0,1-1.663,1.663h-.554a3.886,3.886,0,0,0-3.881,3.881V25.5H187.3v-4.99a3.886,3.886,0,0,0-3.881-3.881h-.554a1.663,1.663,0,0,1-1.663-1.663V13.306h1.109v1.663a.554.554,0,0,0,.554.554h.554a5,5,0,0,1,4.99,4.99v5.544a.554.554,0,0,1-.554.554Z" transform="translate(-170.667 0)"></path>
      <path class="g" d="M324.99,284.541a5,5,0,0,1-4.99-4.99v-2.218h1.109v2.218a3.881,3.881,0,1,0,7.762,0v-2.218h1.109v2.218A5,5,0,0,1,324.99,284.541Z" transform="translate(-316.119 -270.126)"></path>
      <path class="g" d="M267.643,280.66h-.554v-1.109h.554a.554.554,0,1,0,0-1.109h-.554v-1.109h.554a1.663,1.663,0,1,1,0,3.327Zm-9.425,0h-.554a1.663,1.663,0,0,1,0-3.327h.554v1.109h-.554a.554.554,0,1,0,0,1.109h.554Zm4.435,7.762c-2.212,0-3.881-.954-3.881-2.218h1.109c0,.452,1.08,1.109,2.772,1.109s2.772-.657,2.772-1.109h1.109C266.534,287.468,264.865,288.422,262.653,288.422Z" transform="translate(-253.782 -270.126)"></path>
      <path class="g" d="M329.425,623.657h-8.87A.554.554,0,0,1,320,623.1v-4.435h1.109v3.881h7.762v-3.881h1.109V623.1A.555.555,0,0,1,329.425,623.657Z" transform="translate(-316.119 -602.588)"></path>
      <path class="g" d="M248.531,94.483h-1.109v-3.42a3.244,3.244,0,0,1-1.634-1.949l1.053-.352c.111.333.565,1.285,1.138,1.285a.554.554,0,0,1,.554.554Zm-12.2,0h-1.109V90.6a.554.554,0,0,1,.554-.554c.589,0,1.047-1.013,1.138-1.284l1.053.35a3.24,3.24,0,0,1-1.634,1.949Zm10.534-18.3H235.225a.554.554,0,0,1-.392-.946l1.663-1.663.784.784-.717.717h9.75V73.969h1.109v1.663a.554.554,0,0,1-.554.554Zm-8.154-4.273,1.663-1.663.784.784L239.5,72.7Zm3.881-.879.784-.784,1.663,1.663-.784.784Zm-1.271-.392h1.109V72.86h-1.109Z" transform="translate(-233.007 -68.425)"></path>
    </g>
  </g>
</svg>