<svg xmlns="http://www.w3.org/2000/svg" width="300" height="300" viewBox="0 0 300 300" fill="none">
  <path d="M132.579 103.062C120.204 105.962 107.565 107.585 94.8602 107.906C92.4127 107.965 89.9063 107.988 87.6099 108.84C85.7853 109.519 84.193 110.685 82.6227 111.836L46.2309 138.551C41.369 142.112 36.4777 145.702 32.154 149.924C31.7772 150.223 31.506 150.636 31.38 151.101C31.1256 152.625 33.4994 152.894 34.9812 152.455L69.1541 142.285L67.171 143.466" fill="#343437"></path>
  <path d="M132.516 102.807C122.136 105.12 111.587 106.6 100.972 107.235C98.3546 107.382 95.7302 107.43 93.1095 107.522C90.6878 107.611 88.2955 107.917 86.1061 109.035C83.9166 110.153 81.9483 111.795 79.9578 113.257L73.4336 118.053L47.1561 137.341C43.0462 140.359 38.9032 143.352 35.0439 146.695C34.0929 147.518 33.1604 148.359 32.2536 149.23C31.5975 149.857 30.7497 150.595 30.9562 151.613C31.2732 153.152 33.4516 153.193 34.6422 152.971C35.8372 152.69 37.0171 152.348 38.177 151.945L42.1358 150.768L49.9575 148.447L65.4018 143.85L69.2647 142.702L68.933 141.92C68.2769 142.315 67.6318 142.724 66.9831 143.134C66.9022 143.191 66.8458 143.277 66.8248 143.374C66.8038 143.471 66.8198 143.573 66.8696 143.659C66.9194 143.745 66.9995 143.809 67.0942 143.839C67.1888 143.869 67.2912 143.862 67.3812 143.82C68.0447 143.451 68.7118 143.056 69.3679 142.658C69.4526 142.602 69.5151 142.519 69.5445 142.422C69.5739 142.325 69.5684 142.221 69.5289 142.128C69.4893 142.035 69.4183 141.958 69.3283 141.912C69.2382 141.866 69.1348 141.853 69.0362 141.876L38.811 150.868C37.5578 151.244 36.3033 151.613 35.0476 151.975C34.2683 152.239 33.4309 152.28 32.6296 152.093C31.8224 151.872 31.5238 151.27 32.1025 150.562C32.9387 149.658 33.8352 148.812 34.7859 148.03C38.4719 144.746 42.4602 141.82 46.4337 138.898L71.8892 120.208L78.2549 115.533C80.3006 114.031 82.3095 112.478 84.4068 111.039C85.3836 110.338 86.4373 109.751 87.5473 109.29C88.6531 108.872 89.8097 108.604 90.9863 108.493C93.4744 108.227 95.9993 108.279 98.4984 108.164C108.764 107.737 118.971 106.4 129 104.168C130.229 103.893 131.444 103.602 132.645 103.297C132.955 103.22 132.822 102.755 132.516 102.821V102.807Z" fill="black"></path>
  <path d="M132.516 102.807C122.136 105.12 111.587 106.6 100.972 107.235C98.3546 107.382 95.7302 107.43 93.1095 107.522C90.6878 107.611 88.2955 107.917 86.1061 109.035C83.9166 110.153 81.9483 111.795 79.9578 113.257L73.4336 118.053L47.1561 137.341C43.0462 140.359 38.9032 143.352 35.0439 146.695C34.0929 147.518 33.1604 148.359 32.2536 149.23C31.5975 149.857 30.7497 150.595 30.9562 151.613C31.2732 153.152 33.4516 153.193 34.6422 152.971C35.8372 152.69 37.0171 152.348 38.177 151.945L42.1358 150.768L49.9575 148.447L65.4018 143.85L69.2647 142.702L68.933 141.92C68.2769 142.315 67.6318 142.724 66.9831 143.134C66.9022 143.191 66.8458 143.277 66.8248 143.374C66.8038 143.471 66.8198 143.573 66.8696 143.659C66.9194 143.745 66.9995 143.809 67.0942 143.839C67.1888 143.869 67.2912 143.862 67.3812 143.82C68.0447 143.451 68.7118 143.056 69.3679 142.658C69.4526 142.602 69.5151 142.519 69.5445 142.422C69.5739 142.325 69.5684 142.221 69.5289 142.128C69.4893 142.035 69.4183 141.958 69.3283 141.912C69.2382 141.866 69.1348 141.853 69.0362 141.876L38.811 150.868C37.5578 151.244 36.3033 151.613 35.0476 151.975C34.2683 152.239 33.4309 152.28 32.6296 152.093C31.8224 151.872 31.5238 151.27 32.1025 150.562C32.9387 149.658 33.8352 148.812 34.7859 148.03C38.4719 144.746 42.4602 141.82 46.4337 138.898L71.8892 120.208L78.2549 115.533C80.3006 114.031 82.3095 112.478 84.4068 111.039C85.3836 110.338 86.4373 109.751 87.5473 109.29C88.6531 108.872 89.8097 108.604 90.9863 108.493C93.4744 108.227 95.9993 108.279 98.4984 108.164C108.764 107.737 118.971 106.4 129 104.168C130.229 103.893 131.444 103.602 132.645 103.297C132.955 103.22 132.822 102.755 132.516 102.821V102.807Z" fill="#808080"></path>
  <path d="M63.2122 145.012C63.5145 144.226 64.7677 143.481 65.4422 142.994C67.0567 141.824 68.7596 140.747 70.4331 139.673C75.5456 136.477 80.776 133.47 85.9843 130.448C92.0736 126.906 98.1776 123.389 104.23 119.78C109.84 116.437 115.325 112.932 120.817 109.378C124.698 106.866 128.926 104.43 133.63 104.035C138.333 103.641 142.878 105.323 147.29 106.618C152.185 108.094 157.242 108.884 162.262 109.891C167.423 110.929 172.572 111.974 177.71 113.024C188.073 115.14 198.429 117.276 208.78 119.433C213.24 120.363 217.726 121.216 222.167 122.23C224.548 122.777 227.91 123.599 228.024 126.592C228.094 128.514 227.132 130.315 226.41 132.031C225.466 134.274 224.606 136.551 223.83 138.861C222.215 143.573 220.881 148.377 219.653 153.204C217.291 162.451 215.285 171.801 212.281 180.878C209.451 189.406 205.72 197.767 200.236 204.929C195.146 211.499 188.649 216.843 181.223 220.567C166.479 228.065 148.702 229.943 132.505 227.076C126.276 225.969 119.973 224.025 115.111 219.829C111.573 216.77 108.45 213.22 105.446 209.645C97.3851 200.051 90.1495 189.719 83.2272 179.288C77.2706 170.295 71.4025 161.137 66.4264 151.554C65.7113 150.174 65.0147 148.78 64.3991 147.352C64.1448 146.757 63.2933 147.27 63.5329 147.857C65.0663 151.414 66.9977 154.813 68.9255 158.167C71.7564 163.104 74.7457 167.952 77.8088 172.746C84.8122 183.69 92.1842 194.424 100.186 204.649C103.504 208.97 107.053 213.109 110.817 217.047C113.821 220.124 116.943 222.84 120.894 224.608C129.173 228.297 138.646 229.283 147.636 229.205C155.953 229.178 164.216 227.867 172.133 225.316C179.841 222.785 187.135 218.918 193.302 213.612C200.022 207.826 205.035 200.398 208.732 192.38C216.885 174.69 218.769 155.012 225.422 136.813C226.277 134.477 227.346 132.226 228.201 129.898C228.71 128.514 229.097 126.913 228.666 125.47C227.928 122.939 225.024 122.098 222.768 121.555C218.216 120.448 213.59 119.622 209.004 118.666C203.797 117.581 198.589 116.501 193.38 115.426C182.764 113.234 172.148 111.068 161.533 108.928C156.457 107.906 151.37 107.013 146.42 105.511C142.034 104.183 137.47 102.7 132.826 103.297C128.281 103.888 124.208 106.212 120.419 108.663C117.632 110.441 114.916 112.286 112.14 114.002C106.243 117.692 100.227 121.19 94.2262 124.703C88.2881 128.182 82.3315 131.629 76.4376 135.186C72.442 137.599 68.3284 139.961 64.6424 142.842C63.9715 143.37 63.0021 144.016 62.6962 144.857C62.5745 145.193 63.0979 145.329 63.227 145.005L63.2122 145.012Z" fill="black"></path>
  <path d="M62.947 144.939C64.1155 141.618 100.913 122.109 118.008 110.733C122.9 107.475 128.034 103.995 133.899 103.6C139.881 103.198 146.225 106.287 152.056 107.449C166.874 110.401 181.678 113.412 196.469 116.482C204.003 118.039 211.533 119.605 219.06 121.179C225.289 122.482 230.778 123.113 227.405 130.773C221.747 143.621 219.204 157.577 215.61 171.144C212.016 184.712 207.077 198.387 197.637 208.782C183.225 224.648 160.158 230.353 138.827 228.39C131.894 227.752 124.909 226.357 118.771 223.054C104.967 215.604 70.1642 162.008 63.968 147.606" fill="#5C5C5C"></path>
  <path d="M63.2122 145.012C63.5145 144.226 64.7677 143.481 65.4422 142.994C67.0567 141.824 68.7596 140.747 70.4331 139.673C75.5456 136.477 80.776 133.47 85.9843 130.448C92.0736 126.906 98.1776 123.389 104.23 119.78C109.84 116.437 115.325 112.932 120.817 109.378C124.698 106.866 128.926 104.43 133.63 104.035C138.333 103.641 142.878 105.323 147.29 106.618C152.185 108.094 157.242 108.884 162.262 109.891C167.423 110.929 172.572 111.974 177.71 113.024C188.073 115.14 198.429 117.276 208.78 119.433C213.24 120.363 217.726 121.216 222.167 122.23C224.548 122.777 227.91 123.599 228.024 126.592C228.094 128.514 227.132 130.315 226.41 132.031C225.466 134.274 224.606 136.551 223.83 138.861C222.215 143.573 220.881 148.377 219.653 153.204C217.291 162.451 215.285 171.801 212.281 180.878C209.451 189.406 205.72 197.767 200.236 204.929C195.146 211.499 188.649 216.843 181.223 220.567C166.479 228.065 148.702 229.943 132.505 227.076C126.276 225.969 119.973 224.025 115.111 219.829C111.573 216.77 108.45 213.22 105.446 209.645C97.3851 200.051 90.1495 189.719 83.2272 179.288C77.2706 170.295 71.4025 161.137 66.4264 151.554C65.7113 150.174 65.0147 148.78 64.3991 147.352C64.1448 146.757 63.2933 147.27 63.5329 147.857C65.0663 151.414 66.9977 154.813 68.9255 158.167C71.7564 163.104 74.7457 167.952 77.8088 172.746C84.8122 183.69 92.1842 194.424 100.186 204.649C103.504 208.97 107.053 213.109 110.817 217.047C113.821 220.124 116.943 222.84 120.894 224.608C129.173 228.297 138.646 229.283 147.636 229.205C155.953 229.178 164.216 227.867 172.133 225.316C179.841 222.785 187.135 218.918 193.302 213.612C200.022 207.826 205.035 200.398 208.732 192.38C216.885 174.69 218.769 155.012 225.422 136.813C226.277 134.477 227.346 132.226 228.201 129.898C228.71 128.514 229.097 126.913 228.666 125.47C227.928 122.939 225.024 122.098 222.768 121.555C218.216 120.448 213.59 119.622 209.004 118.666C203.797 117.581 198.589 116.501 193.38 115.426C182.764 113.234 172.148 111.068 161.533 108.928C156.457 107.906 151.37 107.013 146.42 105.511C142.034 104.183 137.47 102.7 132.826 103.297C128.281 103.888 124.208 106.212 120.419 108.663C117.632 110.441 114.916 112.286 112.14 114.002C106.243 117.692 100.227 121.19 94.2262 124.703C88.2881 128.182 82.3315 131.629 76.4376 135.186C72.442 137.599 68.3284 139.961 64.6424 142.842C63.9715 143.37 63.0021 144.016 62.6962 144.857C62.5745 145.193 63.0979 145.329 63.227 145.005L63.2122 145.012Z" fill="#808080"></path>
  <path d="M219.06 121.179C211.528 119.607 203.998 118.041 196.468 116.482C181.678 113.422 166.874 110.411 152.056 107.449C146.225 106.287 139.892 103.198 133.899 103.6C133.737 103.608 133.576 103.626 133.416 103.652C131.338 143.637 131.83 183.715 134.89 223.637C135.001 225.065 135.13 226.53 135.336 227.98C136.496 228.135 137.657 228.266 138.819 228.372C160.15 230.335 183.217 224.63 197.63 208.763C207.069 198.38 212.005 184.705 215.602 171.126C219.2 157.547 221.747 143.603 227.398 130.755C230.778 123.113 225.3 122.482 219.06 121.179Z" fill="#343437"></path>
  <path d="M219.152 120.839C207.667 118.438 196.175 116.056 184.677 113.692C178.934 112.514 173.191 111.344 167.449 110.183L158.831 108.445C156.052 107.888 153.239 107.419 150.489 106.733C144.935 105.349 139.269 102.674 133.416 103.297C133.318 103.297 133.224 103.336 133.155 103.405C133.086 103.475 133.047 103.568 133.047 103.666C132.207 119.936 131.788 136.216 131.79 152.506C131.79 168.717 132.217 184.919 133.069 201.11C133.315 205.651 133.587 210.192 133.884 214.733C134.183 219.161 134.367 223.663 134.99 228.076C135.016 228.242 135.189 228.316 135.329 228.334C146.214 229.773 157.445 229.235 168.061 226.412C178.252 223.707 187.946 218.785 195.558 211.405C203.958 203.265 209.196 192.549 212.882 181.579C216.937 169.513 219.148 156.949 222.761 144.761C223.679 141.662 224.685 138.588 225.831 135.566C226.425 134.012 227.059 132.474 227.718 130.946C228.211 129.892 228.555 128.774 228.739 127.625C228.942 126.024 228.507 124.489 227.221 123.459C225.85 122.352 224.025 121.909 222.348 121.529C221.29 121.286 220.225 121.079 219.163 120.858C218.721 120.765 218.533 121.444 218.979 121.537C220.932 121.946 222.941 122.275 224.821 122.961C226.296 123.496 227.707 124.389 228.021 126.024C228.481 128.385 226.985 130.82 226.13 132.924C224.917 135.876 223.855 138.894 222.893 141.938C219.145 153.801 216.955 166.085 213.31 177.974C209.926 188.992 205.226 199.914 197.397 208.534C190.346 216.283 181.054 221.685 171.105 224.818C161.028 227.991 150.298 228.973 139.774 228.139C138.3 228.021 136.825 227.858 135.351 227.666L135.69 227.925C135.13 223.899 134.953 219.807 134.684 215.748C134.415 211.689 134.16 207.66 133.947 203.615C133.499 195.525 133.159 187.428 132.926 179.325C132.459 163.202 132.408 147.077 132.774 130.95C132.981 121.848 133.32 112.758 133.792 103.681L133.442 104.05C138.679 103.43 143.84 105.644 148.831 107.024C151.459 107.762 154.15 108.223 156.822 108.758L165.3 110.467C176.751 112.779 188.197 115.124 199.638 117.5C206.074 118.833 212.511 120.173 218.949 121.518C219.403 121.61 219.598 120.931 219.152 120.839Z" fill="#808080"></path>
  <path d="M161.872 259.356C129.31 252.559 93.113 237.375 63.9863 228.597C63.0758 202.084 65.656 186.62 65.2985 160.097C65.2801 158.672 62.0806 146.075 62.9468 144.938C64.5207 142.879 67.7018 143.429 70.1824 144.175C98.8914 152.816 127.867 160.439 157.109 167.041C158.363 167.322 159.664 167.602 160.91 167.31C162.155 167.019 163.121 166.24 164.12 165.466C183.931 150.003 204.822 135.981 226.635 123.507C230.033 125.758 227.619 135.057 227.641 139.134C227.759 161.787 230.66 179.904 230.778 202.557C230.778 204.959 230.778 207.505 229.499 209.545C228.702 210.826 227.493 211.782 226.303 212.708C204.482 229.681 185.809 245.57 161.857 259.348" fill="#343437"></path>
  <path d="M161.953 259.053C148.683 256.256 135.683 252.33 122.819 248.083C109.877 243.81 97.0645 239.168 84.1783 234.733C77.5214 232.441 70.846 230.201 64.1043 228.165L64.4361 228.596C64.1338 219.74 64.2149 210.907 64.5504 202.062C64.8563 193.985 65.3244 185.915 65.5751 177.838C65.7127 173.341 65.779 168.844 65.7741 164.347C65.7741 162.742 65.9105 161.052 65.6672 159.462C65.5382 158.606 65.3502 157.757 65.177 156.912C64.6462 154.366 64.0712 151.824 63.6473 149.259C63.4455 148.212 63.3113 147.154 63.2455 146.089C63.2148 145.823 63.2247 145.553 63.275 145.289C63.4335 144.783 64.2739 144.337 64.8121 144.163C66.6108 143.58 68.6418 144.163 70.3779 144.698C72.6927 145.392 75.0087 146.081 77.326 146.765C82.0613 148.159 86.8089 149.527 91.5687 150.868C101.079 153.552 110.619 156.124 120.19 158.584C129.762 161.043 139.365 163.392 149 165.628C151.406 166.186 153.814 166.738 156.225 167.284C158.359 167.764 160.453 168.27 162.491 167.17C163.362 166.647 164.189 166.055 164.964 165.399C165.972 164.612 166.982 163.831 167.994 163.056C169.869 161.617 171.755 160.19 173.652 158.775C188.82 147.468 204.584 136.985 220.877 127.374C222.873 126.201 224.873 125.04 226.878 123.891H226.436C227.777 124.828 227.965 126.806 228.024 128.3C228.049 130.282 227.926 132.263 227.656 134.226C227.405 136.021 227.261 137.828 227.224 139.639C227.247 142.717 227.317 145.792 227.435 148.864C227.881 160.583 228.994 172.266 229.701 183.974C230.07 190.048 230.317 196.151 230.369 202.221C230.391 205.029 230.417 208.029 228.463 210.261C227.542 211.316 226.38 212.139 225.282 212.992C224.09 213.921 222.901 214.852 221.714 215.785C212.565 222.954 203.509 230.238 194.213 237.216C185.016 244.202 175.461 250.703 165.587 256.691C164.29 257.471 162.985 258.237 161.673 258.99C161.575 259.047 161.504 259.141 161.475 259.25C161.446 259.359 161.462 259.475 161.518 259.573C161.545 259.622 161.582 259.664 161.626 259.698C161.671 259.733 161.721 259.758 161.775 259.772C161.829 259.786 161.885 259.79 161.94 259.782C161.995 259.775 162.049 259.756 162.097 259.728C172.446 253.702 182.441 247.083 192.031 239.906C201.474 232.917 210.645 225.567 219.875 218.301C222.271 216.419 224.666 214.56 227.073 212.671C228.171 211.875 229.123 210.895 229.886 209.774C230.516 208.697 230.914 207.501 231.054 206.261C231.463 203.335 231.231 200.265 231.165 197.324C231.095 194.158 230.966 190.996 230.796 187.837C230.181 175.889 229.012 163.975 228.452 152.023C228.304 148.889 228.201 145.754 228.142 142.617C228.065 140.391 228.131 138.163 228.341 135.946C228.574 133.876 228.854 131.802 228.905 129.717C228.95 128.031 228.905 126.182 228.168 124.636C227.879 124.043 227.443 123.535 226.9 123.16C226.833 123.12 226.757 123.099 226.679 123.099C226.601 123.099 226.525 123.12 226.458 123.16C209.852 132.659 193.774 143.056 178.297 154.303C174.47 157.085 170.683 159.914 166.933 162.79C166.07 163.449 165.21 164.115 164.352 164.786C163.361 165.558 162.34 166.458 161.116 166.823C159.892 167.188 158.536 166.908 157.272 166.628C156.007 166.347 154.691 166.045 153.416 165.753C143.786 163.539 134.181 161.223 124.603 158.805C114.916 156.345 105.261 153.776 95.6381 151.097C90.8757 149.773 86.1233 148.42 81.3806 147.038C78.9601 146.334 76.5384 145.621 74.1155 144.898C72.0329 144.278 69.9393 143.484 67.7793 143.182C65.7741 142.901 62.3572 143.248 62.3867 145.905C62.4088 148.178 62.9838 150.499 63.4298 152.717C63.8758 154.934 64.4213 157.2 64.801 159.462C65.0516 160.938 64.9116 162.535 64.919 164.041C64.919 166.314 64.9042 168.588 64.8747 170.864C64.6278 187.763 63.1828 204.615 63.4003 221.523C63.4347 223.889 63.4912 226.252 63.5699 228.611C63.572 228.708 63.6049 228.803 63.6638 228.88C63.7227 228.958 63.8047 229.015 63.8979 229.043C76.2534 232.777 88.4209 237.094 100.61 241.334C113.644 245.869 126.707 250.348 139.97 254.175C147.183 256.26 154.463 258.141 161.816 259.669C162.207 259.75 162.377 259.153 161.982 259.068L161.953 259.053Z" fill="black"></path>
  <path d="M161.953 259.053C148.683 256.256 135.683 252.33 122.819 248.083C109.877 243.81 97.0645 239.168 84.1783 234.733C77.5214 232.441 70.846 230.201 64.1043 228.165L64.4361 228.596C64.1338 219.74 64.2149 210.907 64.5504 202.062C64.8563 193.985 65.3244 185.915 65.5751 177.838C65.7127 173.341 65.779 168.844 65.7741 164.347C65.7741 162.742 65.9105 161.052 65.6672 159.462C65.5382 158.606 65.3502 157.757 65.177 156.912C64.6462 154.366 64.0712 151.824 63.6473 149.259C63.4455 148.212 63.3113 147.154 63.2455 146.089C63.2148 145.823 63.2247 145.553 63.275 145.289C63.4335 144.783 64.2739 144.337 64.8121 144.163C66.6108 143.58 68.6418 144.163 70.3779 144.698C72.6927 145.392 75.0087 146.081 77.326 146.765C82.0613 148.159 86.8089 149.527 91.5687 150.868C101.079 153.552 110.619 156.124 120.19 158.584C129.762 161.043 139.365 163.392 149 165.628C151.406 166.186 153.814 166.738 156.225 167.284C158.359 167.764 160.453 168.27 162.491 167.17C163.362 166.647 164.189 166.055 164.964 165.399C165.972 164.612 166.982 163.831 167.994 163.056C169.869 161.617 171.755 160.19 173.652 158.775C188.82 147.468 204.584 136.985 220.877 127.374C222.873 126.201 224.873 125.04 226.878 123.891H226.436C227.777 124.828 227.965 126.806 228.024 128.3C228.049 130.282 227.926 132.263 227.656 134.226C227.405 136.021 227.261 137.828 227.224 139.639C227.247 142.717 227.317 145.792 227.435 148.864C227.881 160.583 228.994 172.266 229.701 183.974C230.07 190.048 230.317 196.151 230.369 202.221C230.391 205.029 230.417 208.029 228.463 210.261C227.542 211.316 226.38 212.139 225.282 212.992C224.09 213.921 222.901 214.852 221.714 215.785C212.565 222.954 203.509 230.238 194.213 237.216C185.016 244.202 175.461 250.703 165.587 256.691C164.29 257.471 162.985 258.237 161.673 258.99C161.575 259.047 161.504 259.141 161.475 259.25C161.446 259.359 161.462 259.475 161.518 259.573C161.545 259.622 161.582 259.664 161.626 259.698C161.671 259.733 161.721 259.758 161.775 259.772C161.829 259.786 161.885 259.79 161.94 259.782C161.995 259.775 162.049 259.756 162.097 259.728C172.446 253.702 182.441 247.083 192.031 239.906C201.474 232.917 210.645 225.567 219.875 218.301C222.271 216.419 224.666 214.56 227.073 212.671C228.171 211.875 229.123 210.895 229.886 209.774C230.516 208.697 230.914 207.501 231.054 206.261C231.463 203.335 231.231 200.265 231.165 197.324C231.095 194.158 230.966 190.996 230.796 187.837C230.181 175.889 229.012 163.975 228.452 152.023C228.304 148.889 228.201 145.754 228.142 142.617C228.065 140.391 228.131 138.163 228.341 135.946C228.574 133.876 228.854 131.802 228.905 129.717C228.95 128.031 228.905 126.182 228.168 124.636C227.879 124.043 227.443 123.535 226.9 123.16C226.833 123.12 226.757 123.099 226.679 123.099C226.601 123.099 226.525 123.12 226.458 123.16C209.852 132.659 193.774 143.056 178.297 154.303C174.47 157.085 170.683 159.914 166.933 162.79C166.07 163.449 165.21 164.115 164.352 164.786C163.361 165.558 162.34 166.458 161.116 166.823C159.892 167.188 158.536 166.908 157.272 166.628C156.007 166.347 154.691 166.045 153.416 165.753C143.786 163.539 134.181 161.223 124.603 158.805C114.916 156.345 105.261 153.776 95.6381 151.097C90.8757 149.773 86.1233 148.42 81.3806 147.038C78.9601 146.334 76.5384 145.621 74.1155 144.898C72.0329 144.278 69.9393 143.484 67.7793 143.182C65.7741 142.901 62.3572 143.248 62.3867 145.905C62.4088 148.178 62.9838 150.499 63.4298 152.717C63.8758 154.934 64.4213 157.2 64.801 159.462C65.0516 160.938 64.9116 162.535 64.919 164.041C64.919 166.314 64.9042 168.588 64.8747 170.864C64.6278 187.763 63.1828 204.615 63.4003 221.523C63.4347 223.889 63.4912 226.252 63.5699 228.611C63.572 228.708 63.6049 228.803 63.6638 228.88C63.7227 228.958 63.8047 229.015 63.8979 229.043C76.2534 232.777 88.4209 237.094 100.61 241.334C113.644 245.869 126.707 250.348 139.97 254.175C147.183 256.26 154.463 258.141 161.816 259.669C162.207 259.75 162.377 259.153 161.982 259.068L161.953 259.053Z" fill="#808080"></path>
  <path d="M226.318 212.715C227.508 211.789 228.717 210.833 229.51 209.553C230.778 207.512 230.803 204.966 230.792 202.564C230.674 179.912 227.774 161.794 227.656 139.142C227.634 135.083 230.048 125.766 226.649 123.515C204.837 135.988 183.945 150.01 164.135 165.473C163.154 166.24 162.137 167.026 160.924 167.318L160.736 167.351C159.922 176.734 159.288 186.037 159.302 194.383C159.302 201.298 159.516 208.21 159.719 215.117L161.002 259.175C161.293 259.234 161.58 259.3 161.872 259.363C185.831 245.578 204.497 229.674 226.318 212.715Z" fill="#5C5C5C"></path>
  <path d="M226.815 213.213C228.046 212.254 229.289 211.254 230.133 209.911C230.881 208.6 231.32 207.136 231.415 205.63C231.53 203.987 231.555 202.339 231.493 200.693C231.471 198.905 231.433 197.115 231.379 195.324C231.172 188.49 230.73 181.672 230.236 174.841C229.749 168.2 229.226 161.528 228.865 154.864C228.677 151.388 228.533 147.912 228.452 144.433C228.385 141.724 228.279 139.02 228.57 136.315C228.846 133.732 229.241 131.149 229.178 128.566C229.13 126.533 228.809 124.138 227.018 122.898C226.91 122.835 226.787 122.802 226.662 122.802C226.537 122.802 226.414 122.835 226.307 122.898C217.323 128.042 208.493 133.444 199.819 139.104C191.145 144.765 182.683 150.655 174.434 156.776C172.116 158.498 169.811 160.234 167.519 161.986C166.396 162.844 165.274 163.705 164.153 164.569C163.073 165.41 161.942 166.414 160.563 166.65C160.417 166.696 160.29 166.785 160.197 166.907C160.105 167.029 160.052 167.176 160.047 167.329C159.535 173.255 159.081 179.188 158.823 185.129C158.573 190.9 158.595 196.667 158.705 202.442C158.934 214.545 159.365 226.644 159.719 238.747C159.918 245.547 160.116 252.348 160.312 259.153C160.318 259.306 160.371 259.454 160.464 259.575C160.557 259.697 160.686 259.786 160.832 259.832C161.448 259.964 161.886 260.138 162.461 259.832C163.036 259.525 163.707 259.094 164.327 258.747C165.484 258.065 166.636 257.375 167.784 256.677C170.082 255.282 172.356 253.851 174.607 252.385C179.03 249.522 183.354 246.533 187.626 243.459C196.104 237.364 204.316 230.914 212.506 224.464C217.276 220.704 222.038 216.936 226.83 213.209C227.545 212.652 226.542 211.663 225.835 212.213C217.615 218.6 209.498 225.128 201.264 231.493C193.214 237.718 185.046 243.784 176.568 249.419C171.653 252.683 166.643 255.791 161.536 258.743L162.078 258.673L161.212 258.485L161.728 259.164C161.352 247.11 160.993 235.038 160.652 222.947C160.305 211.088 159.719 199.184 160.128 187.317C160.36 180.649 160.865 173.993 161.44 167.344L160.924 168.022C162.085 167.816 163.103 167.141 164.028 166.439C165.06 165.654 166.077 164.845 167.106 164.056C169.155 162.474 171.217 160.908 173.291 159.359C177.439 156.266 181.629 153.23 185.86 150.248C194.367 144.275 203.047 138.558 211.898 133.097C216.881 130.02 221.919 127.029 227.011 124.123H226.299C227.685 125.079 227.752 127.311 227.774 128.813C227.734 131.062 227.555 133.306 227.235 135.533C226.992 137.923 226.911 140.327 226.992 142.728C227.054 146.108 227.169 149.486 227.339 152.861C227.984 165.916 229.311 178.93 229.838 191.974C229.993 195.793 230.114 199.623 230.088 203.446C230.088 205.106 230.004 206.848 229.322 208.387C228.603 210.018 227.188 211.128 225.82 212.195C225.109 212.77 226.108 213.759 226.815 213.213Z" fill="#808080"></path>
  <path d="M72.8291 212.778C73.7379 212.717 74.5856 212.298 75.1861 211.613C75.7866 210.927 76.0909 210.031 76.0323 209.121C76.0219 208.974 76.0022 208.827 75.9733 208.682C75.9575 208.619 75.9208 208.563 75.8693 208.524C75.8178 208.484 75.7544 208.463 75.6895 208.464C74.9117 208.546 74.709 209.346 74.6095 210.007C74.434 210.852 74.594 211.732 75.0555 212.461C75.7927 213.468 77.691 213.549 78.0891 212.191L77.4919 212.283C77.9416 213.224 78.8336 213.512 79.7662 213.796C80.872 214.136 81.9778 214.445 83.0836 214.723C85.3173 215.28 87.5805 215.73 89.8584 216.069C90.1939 216.121 90.3413 215.604 90.0022 215.553C87.8935 215.243 85.802 214.826 83.736 214.302C82.7334 214.044 81.7382 213.762 80.7504 213.457C79.7736 213.158 78.5129 212.97 78.0411 211.944C77.9158 211.667 77.5104 211.774 77.433 212.025C77.1565 212.911 75.8738 212.568 75.4978 211.97C75.2402 211.494 75.1359 210.95 75.1992 210.413C75.225 210.022 75.2435 209.129 75.7521 209.058L75.3835 208.852C75.4582 209.223 75.4591 209.605 75.3861 209.976C75.3131 210.347 75.1677 210.701 74.9581 211.016C74.7486 211.331 74.4791 211.601 74.165 211.812C73.8509 212.022 73.4984 212.169 73.1277 212.243C73.0208 212.266 72.9124 212.282 72.8033 212.291C72.4863 212.291 72.4827 212.8 72.8033 212.789L72.8291 212.778Z" fill="#808080"></path>
  <path d="M73.4078 217.866C73.7974 218.266 74.308 218.525 74.8601 218.604C75.0899 218.637 75.3233 218.637 75.5531 218.604C75.9217 218.549 76.2424 218.339 76.5667 218.604C76.7695 218.778 76.9022 219.01 77.1196 219.18C77.3173 219.329 77.5376 219.444 77.7721 219.523C78.2957 219.671 78.8329 219.766 79.3755 219.807C80.684 219.981 81.8598 220.7 83.1278 221.058C84.4759 221.471 85.8798 221.671 87.2893 221.652C87.3529 221.644 87.4115 221.614 87.454 221.566C87.4965 221.518 87.52 221.456 87.52 221.392C87.52 221.328 87.4965 221.266 87.454 221.218C87.4115 221.17 87.3529 221.139 87.2893 221.132C85.9071 221.054 84.5362 220.837 83.1979 220.482C82.0183 220.136 80.9088 219.46 79.6925 219.268C79.1815 219.218 78.6734 219.142 78.1701 219.04C77.8886 218.977 77.6251 218.851 77.3998 218.671C77.2081 218.505 77.0754 218.302 76.8837 218.121C76.4488 217.752 76.0433 217.933 75.5457 218.047C75.2283 218.116 74.8989 218.105 74.5865 218.016C74.2741 217.928 73.9883 217.763 73.7543 217.538C73.5221 217.32 73.1793 217.663 73.4078 217.885V217.866Z" fill="#808080"></path>
  <path d="M74.3441 223.028C75.8046 223.795 77.3448 224.399 78.9368 224.829C79.0087 224.849 79.0856 224.84 79.1505 224.803C79.2155 224.767 79.2633 224.705 79.2833 224.634C79.3034 224.562 79.294 224.485 79.2574 224.42C79.2208 224.355 79.1598 224.307 79.088 224.287C77.5475 223.859 76.0467 223.3 74.6021 222.615C74.3072 222.471 74.0492 222.907 74.3441 223.058V223.028Z" fill="#808080"></path>
  <path d="M160.821 169.509C169.535 174.83 176.442 182.424 182.668 190.431C184.22 192.424 185.739 194.442 187.25 196.468C187.946 197.402 188.595 198.505 189.502 199.254C189.914 199.615 190.431 199.833 190.977 199.873C191.523 199.914 192.068 199.776 192.528 199.479C193.062 199.148 193.576 198.787 194.069 198.398L196.056 196.922L199.576 194.339L206.918 188.952L235.99 167.653L250.524 156.997C251.733 156.108 252.953 155.226 254.158 154.329C255.057 153.665 256.001 152.912 256.307 151.79C257 149.355 254.67 147.093 253.259 145.425C246.439 137.356 238.594 130.216 229.923 124.186C228.881 123.448 227.825 122.737 226.756 122.053C226.27 121.736 225.816 122.518 226.303 122.836C234.954 128.46 242.849 135.17 249.798 142.802C250.653 143.741 251.493 144.696 252.319 145.665C253.185 146.609 253.988 147.61 254.722 148.661C255.419 149.735 255.935 151.071 255.146 152.244C254.457 153.27 253.207 153.964 252.23 154.683L238.006 165.126L209.709 185.896L195.484 196.335C194.379 197.147 193.302 198.092 192.112 198.767C191.871 198.93 191.593 199.029 191.303 199.055C191.013 199.08 190.722 199.03 190.457 198.911C189.949 198.606 189.516 198.191 189.189 197.697C187.67 195.715 186.203 193.69 184.684 191.708C178.761 183.989 172.303 176.458 164.194 170.956C163.188 170.273 162.144 169.646 161.09 169.045C161.058 169.028 161.023 169.018 160.986 169.015C160.95 169.012 160.914 169.017 160.879 169.028C160.845 169.04 160.813 169.059 160.786 169.083C160.759 169.107 160.737 169.137 160.722 169.17C160.695 169.228 160.689 169.294 160.706 169.357C160.723 169.419 160.761 169.473 160.814 169.509H160.821Z" fill="#808080"></path>
  <path d="M185.784 97.144C187.546 98.7724 190.57 98.8678 191.897 96.6563C192.195 96.1908 192.367 95.6557 192.396 95.1034C192.425 94.5512 192.31 94.0007 192.063 93.506C191.501 92.4024 190.461 91.6591 189.841 90.6001L189.284 91.1652C190.853 92.2042 193.352 92.6143 194.891 91.3069C195.222 91.0185 195.46 90.6376 195.575 90.2129C195.689 89.7883 195.674 89.3391 195.532 88.9226C195.228 87.8912 194.398 87.1662 193.811 86.3188L193.312 86.9456C194.651 87.6714 196.295 88.3304 197.758 87.5209C198.876 86.9028 199.418 85.3074 198.479 84.2886C198.137 83.9174 197.51 84.3827 197.847 84.775C198.563 85.6112 197.866 86.6897 196.959 86.9656C195.792 87.3153 194.617 86.7187 193.615 86.1775C193.235 85.9695 192.918 86.5033 193.134 86.8098C193.839 87.7991 195.809 89.5603 194.28 90.7309C193.022 91.6978 190.975 91.3447 189.764 90.5295C189.727 90.4916 189.682 90.4614 189.633 90.4407C189.584 90.42 189.531 90.4092 189.477 90.409C189.424 90.4087 189.371 90.419 189.322 90.4392C189.272 90.4594 189.227 90.4892 189.189 90.5268C189.152 90.5644 189.121 90.6091 189.101 90.6584C189.08 90.7076 189.069 90.7605 189.069 90.8139C189.069 90.8673 189.079 90.9203 189.099 90.9698C189.12 91.0192 189.15 91.0642 189.187 91.1022C190.148 92.6818 192.402 93.9683 191.34 96.0801C190.331 98.13 187.697 97.9846 186.147 96.6721C185.831 96.3936 185.485 96.9107 185.768 97.1654L185.784 97.144Z" fill="#C4C4C4"></path>
  <path d="M99.0623 131.968C98.0817 126.443 95.6462 121.281 92.0073 117.013C88.4003 112.708 83.7355 109.418 78.4723 107.467C77.1448 106.961 75.7724 106.581 74.3735 106.334C73.0097 106.12 71.3952 106.153 70.3631 107.216C69.331 108.279 69.3421 109.799 69.5632 111.135C69.8036 112.602 70.3843 113.992 71.2588 115.194C72.0144 116.231 73.1423 117.47 74.4361 117.777C75.9105 118.146 76.7436 116.817 76.7915 115.526C76.832 114.05 76.1501 112.526 75.3834 111.293C74.5139 109.948 73.4235 108.759 72.1582 107.777C69.915 106.028 67.3406 104.753 64.5909 104.03C61.8411 103.306 58.9733 103.148 56.161 103.567C55.4889 103.67 54.8232 103.81 54.1668 103.987C53.7429 104.102 53.9236 104.829 54.3548 104.725C59.3808 103.579 64.6518 104.307 69.1799 106.773C71.6385 108.146 73.9717 110.116 75.2176 112.677C75.7299 113.736 76.4708 115.555 75.6415 116.64C74.7494 117.803 72.9912 115.983 72.3941 115.312C71.4629 114.254 70.798 112.989 70.4553 111.622C70.1714 110.448 69.9576 108.825 70.7722 107.799C71.6901 106.637 73.4483 106.792 74.7421 107.061C76.0103 107.328 77.2562 107.692 78.4686 108.15C83.2641 109.944 87.5513 112.88 90.9605 116.703C94.4292 120.532 96.8939 125.164 98.1334 130.182C98.2845 130.787 98.4099 131.4 98.502 132.027C98.5647 132.396 99.1213 132.322 99.0623 131.964V131.968Z" fill="#C4C4C4"></path>
  <path d="M142.7 40.541C144.929 46.6854 146.487 53.0529 147.346 59.5321C148.091 65.1628 148.423 70.9356 147.782 76.5938C147.215 81.6011 145.808 86.6278 142.92 90.8116C141.64 92.6638 140.038 94.6629 137.823 95.3874C136.942 95.6726 135.893 95.7605 135.138 95.1259C134.123 94.267 134.125 92.6032 134.317 91.3802C134.683 88.9699 136.098 86.9211 137.845 85.2795C139.564 83.6373 141.599 82.3632 143.827 81.535C145.832 80.8136 148.215 80.4018 150.257 81.2139C152.909 82.295 153.689 85.127 153.584 87.7653C153.465 90.5652 152.684 93.4024 151.787 96.0468C150.878 98.7167 149.691 101.283 148.244 103.703C147.541 104.913 146.759 106.074 145.902 107.18C145.312 107.911 144.324 108.876 143.305 108.814C142.001 108.737 141.984 106.791 142.117 105.842C142.304 104.708 142.767 103.638 143.465 102.726C144.181 101.762 145.032 100.906 145.991 100.183C147.036 99.3124 148.225 98.6321 149.505 98.1733C150.068 97.9733 150.673 97.92 151.264 98.0182C151.854 98.1165 152.409 98.3631 152.878 98.735C153.656 99.4396 154.211 100.357 154.473 101.374C155.131 103.653 154.722 106.114 153.843 108.277C152.907 110.574 151.412 112.599 149.495 114.169C148.537 114.956 147.475 115.606 146.339 116.103C145.889 116.298 146.098 117.048 146.555 116.851C151.524 114.712 155.197 109.895 155.635 104.453C155.814 102.243 155.213 99.5509 153.413 98.089C151.061 96.1642 148.14 97.5921 146.007 99.1222C143.967 100.587 141.993 102.586 141.392 105.114C141.109 106.287 141.047 107.903 141.838 108.915C142.57 109.855 143.765 109.783 144.733 109.269C145.884 108.656 146.644 107.595 147.371 106.552C148.249 105.3 149.054 103.998 149.782 102.652C151.229 99.9738 152.375 97.1425 153.198 94.2104C154.012 91.3174 154.804 88.058 154.187 85.0563C153.955 83.7938 153.334 82.6356 152.41 81.7448C151.487 80.854 150.307 80.2756 149.038 80.091C146.635 79.7406 144.185 80.41 142.043 81.4435C139.669 82.5764 137.572 84.2166 135.9 86.2486C134.291 88.2497 133.175 90.842 133.537 93.4607C133.709 94.6938 134.373 95.8233 135.604 96.2204C136.611 96.5441 137.724 96.2802 138.662 95.8631C140.965 94.8444 142.626 92.6632 143.956 90.6005C145.406 88.3022 146.511 85.8025 147.234 83.1818C148.814 77.667 149.01 71.8376 148.668 66.1405C148.242 59.0803 146.996 52.0933 144.956 45.3203C144.453 43.6502 143.903 41.9961 143.307 40.358C143.164 39.9691 142.547 40.1436 142.688 40.537L142.7 40.541Z" fill="#C4C4C4"></path>
  <path d="M199.453 131.46C200.263 126.13 202.293 121.06 205.384 116.645C208.475 112.23 212.544 108.59 217.272 106.008C222.001 103.427 227.261 101.975 232.642 101.765C238.024 101.554 243.381 102.592 248.296 104.796C250.909 105.981 253.53 107.486 255.299 109.807C256.946 111.976 257.826 114.632 257.798 117.357C257.787 118.055 257.728 118.752 257.621 119.442C257.57 119.811 258.09 119.962 258.174 119.593C258.728 116.906 258.381 114.111 257.186 111.641C255.952 108.988 253.814 106.999 251.318 105.531C246.287 102.579 240.371 101.103 234.554 101.003C226.308 100.892 218.281 103.663 211.854 108.837C205.427 114.011 201.003 121.266 199.342 129.353C199.209 130.01 199.099 130.67 199.003 131.331C198.959 131.633 199.416 131.762 199.464 131.46H199.453Z" fill="#C4C4C4"></path>
</svg>