<svg xmlns="http://www.w3.org/2000/svg" width="100%" height="100%" fill="none">
  <path d="M99.141 162.146H74.124V195.502H99.141V162.146Z" fill="#0E3369"></path>
  <path d="M201.931 65.3668L204.573 66.7208L206.597 64.3878L207.462 68.2058L210.301 69.7398L207.462 71.6808L207.771 75.9558L204.623 71.6978L201.115 72.2528L203.154 69.7238L201.931 65.3668ZM222.015 81.7148L219.974 84.2438L223.483 83.6888L226.631 87.9468L226.322 83.6718L229.161 81.7298L226.322 80.1958L225.457 76.3778L223.433 78.7108L220.791 77.3568L222.015 81.7148ZM218.54 61.8428L216.5 64.3718L220.009 63.8168L223.157 68.0748L222.848 63.7998L225.687 61.8588L222.848 60.3248L221.983 56.5068L219.959 58.8398L217.317 57.4858L218.54 61.8428ZM169.626 48.3988L172.27 49.7528L174.292 47.4198L175.157 51.2378L177.997 52.7718L175.157 54.7138L175.468 58.9888L172.318 54.7308L168.811 55.2858L170.849 52.7568L169.626 48.3988ZM189.711 64.7468L187.672 67.2758L191.18 66.7208L194.328 70.9788L194.019 66.7038L196.858 64.7618L194.019 63.2278L193.154 59.4098L191.13 61.7428L188.488 60.3888L189.711 64.7468ZM186.235 44.8748L184.197 47.4038L187.704 46.8488L190.854 51.1068L190.544 46.8318L193.383 44.8898L190.544 43.3558L189.678 39.5378L187.656 41.8708L185.013 40.5168L186.235 44.8748Z" fill="white"></path>
  <path d="M219.959 58.8248L217.316 57.4708L218.116 57.0628L220.449 58.2538L219.959 58.8248ZM220.775 77.3428L223.418 78.6968L223.908 78.1418L221.575 76.9508L220.775 77.3428ZM225.702 61.8598L222.863 63.8008L223.173 68.0758L223.973 67.6678L223.663 63.3928L226.502 61.4508L223.663 59.9168L222.798 56.0988L221.998 56.5068L222.863 60.3248L225.702 61.8598ZM229.96 81.3408L227.121 79.8068L226.256 75.9888L225.456 76.3968L226.321 80.2148L229.16 81.7488L226.321 83.6908L226.631 87.9658L227.431 87.5578L227.121 83.2828L229.96 81.3408ZM205.06 66.1678L202.727 64.9768L201.927 65.3848L204.57 66.7388L205.06 66.1678ZM208.274 67.8158L207.409 63.9978L206.609 64.4058L207.474 68.2238L210.313 69.7578L207.474 71.6988L207.784 75.9738L208.584 75.5658L208.274 71.2908L211.113 69.3488L208.274 67.8158ZM188.141 41.3038L185.808 40.1128L185.008 40.5208L187.651 41.8748L188.141 41.3038ZM188.467 60.3768L191.11 61.7308L191.599 61.1758L189.266 59.9848L188.467 60.3768ZM193.394 44.8938L190.555 46.8358L190.865 51.1108L191.665 50.7028L191.355 46.4278L194.194 44.4858L191.355 42.9518L190.49 39.1338L189.69 39.5418L190.555 43.3598L193.394 44.8938ZM197.652 64.3738L194.813 62.8398L193.948 59.0218L193.148 59.4298L194.013 63.2478L196.852 64.7818L194.013 66.7238L194.323 70.9988L195.123 70.5908L194.813 66.3158L197.652 64.3738ZM172.752 49.2008L170.419 48.0098L169.619 48.4178L172.262 49.7718L172.752 49.2008ZM175.966 50.8488L175.101 47.0308L174.301 47.4388L175.166 51.2568L178.005 52.7908L175.166 54.7328L175.476 59.0078L176.276 58.5998L175.966 54.3248L178.805 52.3828L175.966 50.8488Z" fill="#3DC5FC"></path>
  <path d="M237.58 109.925L244.106 106.172V119.11C242.582 116.845 240.533 114.981 238.135 113.677C238.111 112.408 237.924 111.147 237.58 109.925ZM226.518 116.288L198.767 132.228V137.498C199.933 137.694 201.047 138.121 202.046 138.754C210.106 143.404 210.106 152.72 210.106 152.72C219.977 158.414 217.706 166.42 217.706 166.42L198.749 155.472L198.733 210.879L244.106 184.758V126.452L226.518 116.288ZM161.811 232.388L190.967 215.599V165.136L161.828 181.872L161.811 232.388ZM151.924 131.918L125.754 146.961L125.738 211.7L132.688 207.7V165.119L153.409 153.143V132.766L151.924 131.918ZM113.697 137.041L93.8899 209.367C93.8445 209.528 93.7488 209.67 93.6167 209.773C93.4846 209.876 93.3232 209.933 93.1559 209.938H92.3559C92.2384 209.939 92.1224 209.912 92.0169 209.861C91.9115 209.809 91.8195 209.733 91.7483 209.64C91.6771 209.546 91.6286 209.438 91.6066 209.322C91.5847 209.207 91.5899 209.088 91.6219 208.975L95.3579 195.352C95.2856 195.329 95.2148 195.302 95.1459 195.27L82.7459 188.352L79.3669 200.703C79.3215 200.864 79.2258 201.006 79.0937 201.109C78.9616 201.212 78.8001 201.269 78.6329 201.274H77.8329C77.7154 201.275 77.5994 201.248 77.4939 201.197C77.3884 201.145 77.2965 201.069 77.2253 200.976C77.154 200.882 77.1056 200.774 77.0836 200.658C77.0617 200.543 77.0669 200.424 77.0989 200.311L96.8729 127.953C96.9182 127.792 97.0138 127.649 97.1459 127.547C97.278 127.444 97.4396 127.386 97.6069 127.382H98.4069C98.5244 127.381 98.6404 127.407 98.7459 127.459C98.8513 127.511 98.9433 127.587 99.0145 127.68C99.0857 127.773 99.1342 127.882 99.1562 127.997C99.1781 128.113 99.1729 128.232 99.1409 128.345L95.1109 143.061C95.221 143.077 95.3266 143.116 95.4209 143.175L107.755 149.962L111.41 136.632C111.455 136.471 111.551 136.329 111.683 136.226C111.815 136.123 111.977 136.065 112.144 136.061H112.944C113.062 136.064 113.179 136.093 113.284 136.147C113.39 136.2 113.482 136.277 113.555 136.371C113.627 136.465 113.677 136.574 113.702 136.69C113.726 136.806 113.725 136.926 113.697 137.041ZM99.2739 180.995C99.2579 180.995 99.2579 180.979 99.2409 180.979L86.7759 174.029C86.7429 174.013 86.7109 173.98 86.6759 173.964L83.2329 186.527C83.3586 186.542 83.4803 186.581 83.5919 186.641L95.8769 193.396L99.2739 180.995ZM103.353 166.115C103.26 166.099 103.172 166.065 103.092 166.015L90.7409 159.115L87.1519 172.232C87.3441 172.214 87.5372 172.254 87.7069 172.346L99.8289 179.019L103.353 166.115ZM107.236 151.921C107.145 151.899 107.057 151.866 106.975 151.821L94.6239 144.936L91.2469 157.272C91.3493 157.29 91.4485 157.324 91.5409 157.372L103.875 164.159L107.236 151.921Z" fill="#0A2B59"></path>
  <path d="M172.124 107.298C172.124 107.298 172.224 107.119 172.336 106.858C172.338 106.983 172.333 107.108 172.32 107.233V107.249C172.311 107.266 172.299 107.282 172.284 107.294C172.269 107.306 172.252 107.314 172.233 107.319C172.215 107.324 172.195 107.324 172.176 107.321C172.157 107.317 172.139 107.309 172.124 107.298ZM173.266 106.711C173.185 106.745 173.116 106.801 173.067 106.874C173.018 106.946 172.991 107.031 172.989 107.119C172.976 107.233 172.942 107.344 172.889 107.445C172.905 107.429 172.922 107.396 172.954 107.363C172.987 107.265 173.133 106.971 173.264 106.71L173.266 106.711ZM173.466 107.347C173.5 107.281 173.544 107.221 173.597 107.168V106.679C173.45 106.956 173.238 107.495 173.238 107.495C173.238 107.495 173.345 107.51 173.46 107.347H173.466ZM170.856 109.566C170.898 109.008 171.019 108.458 171.215 107.934C171.46 107.526 172.553 105.682 172.553 105.682C172.553 105.682 172.635 105.764 172.602 106.025L173.973 104.85C174.641 101.589 175.721 98.4253 177.187 95.436C177.129 95.1341 177.091 94.8288 177.073 94.522C176.941 94.4595 176.82 94.3769 176.714 94.277L176.583 92.76L173.516 94.522V94.701C174.116 97.426 172.08 103.054 172.08 103.054L172.292 104.18C172.255 104.473 172.144 104.751 171.969 104.988C171.794 105.225 171.561 105.413 171.292 105.534V106.904C171.292 107.394 170.966 107.459 170.737 107.214C170.737 107.214 170.182 107.834 170.101 107.132C170.101 107.132 169.661 107.572 169.546 107.099C169.415 106.642 169.171 104.554 169.171 104.554L170.313 103.054L170.413 96.316L153.413 106.138L168.766 114.965C169.624 112.698 170.67 110.006 170.849 109.566H170.856ZM175.897 158.708C176.3 160.523 176.834 162.306 177.497 164.043C177.546 163.929 177.448 165.022 176.143 163.88C174.838 162.738 173.076 160.291 172.554 159.932C172.097 159.622 173.5 158.072 173.827 157.746C173.762 156.905 173.746 156.06 173.778 155.217L167.203 151.417L166.844 155.365C166.844 155.365 164.935 167.618 163.679 170.408C163.728 170.424 163.728 170.457 163.728 170.49C163.856 170.68 163.934 170.898 163.956 171.126C163.919 171.861 163.991 172.598 164.168 173.312L165.245 174.748C165.245 174.748 164.054 176.148 162.161 174.715C160.268 173.282 162.291 172.17 161.198 171.256C160.105 170.342 160.198 170.065 162.03 168.597C162.021 168.571 162.015 168.543 162.014 168.515C160.709 161.173 162.259 155.789 162.585 155.055C162.748 154.68 162.112 151.531 161.443 148.529L132.695 165.122L161.824 181.875L190.963 165.135L176.703 156.879C176.201 158.006 175.891 158.707 175.891 158.707L175.897 158.708ZM137.397 123.516C137.397 114.804 145.457 118.948 145.457 118.948C145.482 117.822 145.692 116.707 146.077 115.648L125.748 103.885L88.4238 125.473L96.3238 130.009L96.8948 127.953C96.9402 127.792 97.036 127.65 97.168 127.547C97.3001 127.444 97.4616 127.386 97.6288 127.382H98.4288C98.5463 127.381 98.6624 127.408 98.7678 127.459C98.8733 127.511 98.9652 127.587 99.0364 127.68C99.1076 127.774 99.1562 127.882 99.1781 127.998C99.2 128.113 99.1948 128.232 99.1628 128.345L98.3798 131.184L110.927 138.395L111.417 136.617C111.462 136.456 111.558 136.314 111.69 136.211C111.822 136.108 111.984 136.05 112.151 136.046H112.951C113.068 136.045 113.184 136.072 113.29 136.123C113.395 136.175 113.487 136.251 113.558 136.344C113.63 136.438 113.678 136.546 113.7 136.662C113.722 136.777 113.717 136.896 113.685 137.009L112.985 139.571L125.744 146.913L151.914 131.87L137.397 123.516ZM198.732 79.937L191.357 84.195C192.222 84.684 192.757 85.207 192.757 85.795C193.838 87.8673 194.307 90.2041 194.111 92.533C193.834 94.426 191.876 97.46 190.195 99.761L193.495 101.474C193.511 101.343 193.528 101.262 193.528 101.262C195.894 101.344 196.138 101.507 195.812 102.894C195.486 104.281 197.77 103.954 197.117 106.239C196.464 108.524 194.67 108.115 194.67 108.115V106.32C194.383 105.642 193.998 105.01 193.528 104.444C193.477 104.369 193.439 104.286 193.414 104.199C192.714 104.117 190.624 103.889 188.307 103.612C190.363 106.386 191.733 111.949 192.157 113.825C192.663 114.38 193.593 115.505 193.201 115.767C192.679 116.126 190.917 118.573 189.612 119.715C188.307 120.857 188.193 119.764 188.258 119.878C188.86 118.287 189.372 116.664 189.792 115.016C188.732 112.977 184.979 105.684 183.951 103.041C182.646 102.841 181.52 102.666 180.867 102.503C178.191 101.85 179.072 99.68 179.072 99.68L184.309 91.017C183.485 90.8602 182.648 90.7782 181.809 90.772C181.629 90.821 181.417 90.872 181.189 90.919V94.296C181.189 94.296 181.01 94.361 180.732 94.443C180.585 95.569 180.455 96.433 180.422 96.597C180.34 97.103 176.082 104.624 175.593 105.489L175.43 107.447C175.299 107.904 174.875 107.659 174.875 107.659C174.842 108.214 174.206 108.165 174.206 108.165C173.945 108.883 173.537 108.752 173.537 108.752L173.553 107.806C173.361 108.235 173.12 108.64 172.835 109.013C172.585 109.472 172.435 109.978 172.394 110.498C172.329 111.314 172.084 114.087 171.709 116.73L176.946 119.748C177.338 119.095 177.778 118.329 177.778 118.329C177.778 118.329 177.909 118.46 177.778 118.949C177.679 119.299 177.536 119.635 177.354 119.949C177.354 119.949 177.468 120.031 177.554 119.884C177.636 119.753 178.254 118.546 178.254 118.546C178.254 118.546 178.482 118.628 178.368 119.003C178.237 119.378 177.96 120.112 177.96 120.112C177.96 120.112 178.074 120.212 178.172 119.998C178.27 119.784 178.792 118.725 178.792 118.725C178.792 118.725 179.02 119.002 178.892 119.198C178.733 119.5 178.591 119.81 178.468 120.128C178.468 120.128 178.582 120.144 178.696 119.981C178.849 119.762 179.018 119.555 179.202 119.361C179.238 119.404 179.259 119.459 179.259 119.516C179.259 119.573 179.238 119.628 179.202 119.671C179.137 119.753 178.908 120.242 178.663 120.715L198.731 132.25L226.483 116.31L213.924 109.06C213.924 100.348 221.984 104.492 221.984 104.492C221.984 104.492 221.984 95.078 230.06 99.744C231.934 100.854 233.564 102.33 234.854 104.085C236.144 105.84 237.066 107.837 237.565 109.957L244.091 106.204L198.732 79.937Z" fill="#20488C"></path>
  <path d="M181.634 267.239L313.299 191.226V205.91L182.156 280.762L14.0752 184.551V170.503L181.634 267.239ZM95.4402 143.191L107.774 149.978L110.939 138.427L98.3752 131.216L95.1282 143.094C95.2363 143.111 95.3414 143.144 95.4402 143.191ZM153.523 114.199C153.49 114.183 153.441 114.15 153.409 114.134V106.139L168.762 114.966C168.207 116.434 167.734 117.739 167.604 118.18C167.359 118.721 167.041 119.225 166.658 119.68C166.687 119.342 166.584 119.005 166.372 118.741C166.159 118.477 165.853 118.305 165.516 118.261C163.836 118.016 161.47 118.979 161.111 120.692C161.111 120.692 160.295 120.562 160.377 121.736C160.393 121.964 160.393 122.193 160.393 122.421C159.128 118.965 156.699 116.057 153.523 114.199ZM161.423 148.51L153.396 153.144V132.766L159.384 136.225C159.123 139.472 159.025 142.245 159.025 142.245C159.276 142.779 159.702 143.211 160.232 143.469C160.475 144.382 160.946 146.405 161.419 148.51H161.423ZM176.988 119.71C176.776 120.069 176.58 120.395 176.499 120.542C176.279 121.223 176.136 121.928 176.075 122.642C175.418 124.539 175.049 126.525 174.982 128.532L168.13 128.777C167.263 128.272 166.364 127.825 165.438 127.439L165.862 126.525L166.613 125.725C167.313 125.366 168.098 124.746 168.13 124.306V124.159C168.844 123.393 169.602 122.668 170.398 121.989C170.936 121.597 171.41 119.199 171.752 116.67L176.988 119.71ZM167.427 148.751C171 147.805 175.715 146.043 175.715 146.043C174.574 148.968 173.918 152.059 173.773 155.196L167.198 151.396L167.427 148.751ZM161.358 126.024C161.293 125.649 161.211 125.224 161.097 124.768C161.216 124.887 161.354 124.987 161.505 125.062C161.658 125.153 161.816 125.235 161.978 125.307C161.729 125.603 161.517 125.848 161.354 126.027L161.358 126.024ZM99.2752 180.994L95.8812 193.394L88.4252 189.283V174.939L99.2422 180.976C99.2572 180.978 99.2572 180.994 99.2752 180.994ZM112.996 139.618L125.755 146.96L125.739 211.699L97.7262 195.449L112.996 139.618ZM132.689 165.118L161.828 181.874L161.812 232.386L132.689 215.5V165.118ZM185.91 148.069L198.75 155.476L198.734 210.883L190.952 206.364V165.139L176.692 156.883C178.292 153.183 181.701 144.94 181.26 143.439C180.689 141.481 178.372 141.481 178.372 141.481L170.133 143.162C169.709 142.64 169.644 138.153 169.644 134.58C171.716 133.634 177.671 130.86 178.128 130.061C178.666 129.082 177.687 123.127 177.687 123.127C177.687 123.127 177.85 121.838 178.144 121.577C178.363 121.299 178.549 120.997 178.699 120.677L198.767 132.212V137.482C193.987 136.846 193.987 143.482 193.987 143.482C193.987 143.482 185.908 139.339 185.908 148.069H185.91ZM96.3102 130.024L88.4102 158.853V125.473L96.3102 130.024ZM99.8182 179.024L88.4302 172.759V167.599L90.7472 159.131L103.098 166.016C103.179 166.063 103.267 166.097 103.359 166.116L99.8182 179.024ZM94.6242 144.939L106.975 151.824C107.055 151.874 107.143 151.908 107.236 151.924L103.875 164.173L91.5412 157.386C91.4488 157.338 91.3497 157.304 91.2472 157.286L94.6242 144.939Z" fill="#071D3D"></path>
  <path d="M127.483 104.933L145.642 94.4419L159.673 102.534L153.408 106.156V114.151C153.441 114.167 153.49 114.2 153.522 114.216C148.872 111.54 146.914 113.516 146.066 115.684L127.483 104.933ZM244.121 151.285V184.748L198.748 210.869L190.966 206.35V215.584L161.81 232.372L132.687 215.502V207.687L125.737 211.687L97.7242 195.437L111.347 145.692L93.8902 209.371C93.8448 209.532 93.7491 209.674 93.617 209.777C93.4849 209.88 93.3235 209.938 93.1562 209.942H92.3562C92.2387 209.943 92.1227 209.916 92.0172 209.865C91.9117 209.813 91.8198 209.737 91.7486 209.644C91.6774 209.55 91.6289 209.442 91.6069 209.326C91.585 209.211 91.5902 209.092 91.6222 208.979L95.3582 195.356C95.2859 195.333 95.2151 195.306 95.1462 195.274L82.7462 188.356L79.3692 200.707C79.3238 200.868 79.2281 201.01 79.096 201.113C78.9639 201.216 78.8025 201.273 78.6352 201.278H77.8352C77.7177 201.279 77.6017 201.252 77.4962 201.201C77.3908 201.149 77.2988 201.073 77.2276 200.98C77.1564 200.886 77.1079 200.778 77.0859 200.662C77.064 200.547 77.0692 200.428 77.1012 200.315L88.4402 158.89V127.513L14.0752 170.504L181.634 267.254L313.298 191.242L244.121 151.285Z" fill="#0E3369"></path>
  <path d="M167.309 122.422C167.423 122.96 168.157 123.695 168.125 124.331C168.109 124.869 166.885 125.701 166.135 125.946L165.435 127.463C164.472 127.055 163.542 126.696 162.825 126.451L163.445 125.782C163.345 125.749 163.265 125.717 163.168 125.682C163.281 125.701 163.397 125.707 163.511 125.698C163.511 125.698 164.111 126.008 164.425 125.029C164.425 125.029 162.908 124.703 163.316 123.561C163.724 122.419 164.621 124.181 164.621 124.181L165.241 123.773L164.621 122.273C164.621 122.273 166.236 122.012 166.546 120.723C166.579 120.788 166.595 120.837 166.628 120.902C166.918 121.378 167.147 121.888 167.309 122.422ZM171.29 106.906V105.536C171.56 105.416 171.794 105.228 171.97 104.991C172.145 104.754 172.255 104.475 172.29 104.182L172.078 103.056C172.078 103.056 174.117 97.4105 173.514 94.7025L173.563 92.1405C172.458 92.2775 171.341 92.2829 170.235 92.1566L170.435 95.6155L170.321 103.072L169.179 104.572C169.179 104.572 169.44 106.66 169.554 107.117C169.685 107.574 170.109 107.15 170.109 107.15C170.191 107.835 170.745 107.232 170.745 107.232C170.963 107.477 171.29 107.395 171.29 106.906ZM172.579 85.4995C172.809 85.4377 173.028 85.3445 173.232 85.2225C174.472 84.4885 174.195 82.3996 173.95 81.9926C173.823 81.7777 173.628 81.6113 173.395 81.5196C173.31 81.9336 173.255 82.3534 173.232 82.7755C173.265 83.7755 171.943 83.7875 171.845 83.7875C171.91 83.7875 172.237 83.7226 172.269 82.3516C172.302 80.8516 171.192 82.2046 171.192 82.2046C171.292 82.4244 171.317 82.6708 171.264 82.9064C171.211 83.1419 171.083 83.3537 170.898 83.5096C170.868 83.1037 170.785 82.7035 170.653 82.3185C169.305 82.2157 167.996 81.8144 166.822 81.1436C166.398 81.4696 166.904 83.0525 166.904 83.0855C167.115 83.6593 167.419 84.1942 167.804 84.6685C167.993 85.6379 168.483 86.5229 169.204 87.1975C170.05 87.8325 171.699 86.6435 172.579 85.4995ZM178.73 119.958C178.71 120.001 178.678 120.038 178.638 120.064C178.597 120.091 178.55 120.104 178.502 120.105C178.626 119.787 178.767 119.476 178.926 119.175C179.057 118.975 178.826 118.702 178.826 118.702C178.826 118.702 178.304 119.763 178.206 119.975C178.108 120.187 177.994 120.089 177.994 120.089C177.994 120.089 178.288 119.371 178.402 118.98C178.533 118.605 178.288 118.523 178.288 118.523C178.288 118.523 177.668 119.714 177.588 119.861C177.58 119.879 177.568 119.895 177.553 119.908C177.539 119.921 177.521 119.931 177.502 119.937C177.484 119.943 177.464 119.945 177.444 119.943C177.424 119.941 177.405 119.935 177.388 119.926C177.563 119.607 177.705 119.272 177.812 118.926C177.943 118.42 177.812 118.306 177.812 118.306C177.812 118.306 176.719 120.15 176.474 120.558C176.254 121.239 176.111 121.944 176.05 122.658L177.682 123.147C177.682 123.147 177.845 121.858 178.139 121.597C178.544 120.979 178.909 120.336 179.232 119.672C179.269 119.628 179.289 119.573 179.289 119.517C179.289 119.46 179.269 119.405 179.232 119.362C179.046 119.543 178.878 119.743 178.73 119.958ZM180.753 94.4076C180.606 95.5336 180.476 96.3976 180.443 96.5616C180.361 97.0676 176.103 104.589 175.614 105.454L175.451 107.412C175.32 107.869 174.896 107.624 174.896 107.624C174.863 108.179 174.227 108.13 174.227 108.13C173.966 108.848 173.558 108.717 173.558 108.717L173.574 107.771C173.382 108.199 173.141 108.604 172.856 108.978C172.607 109.436 172.457 109.942 172.416 110.463C172.432 110.316 172.432 110.235 172.432 110.235L170.849 109.517C170.834 109.536 170.823 109.558 170.816 109.582C170.858 109.023 170.979 108.474 171.175 107.95C171.42 107.542 172.513 105.699 172.513 105.699C172.513 105.699 172.595 105.781 172.562 106.042L173.932 104.867C174.601 101.605 175.681 98.4418 177.146 95.4525C177.089 95.1506 177.051 94.8453 177.032 94.5385C178.142 95.0765 179.923 94.6686 180.753 94.4076ZM172.334 106.857C172.22 107.118 172.122 107.298 172.122 107.298C172.122 107.298 172.236 107.38 172.322 107.233V107.217C172.334 107.097 172.338 106.977 172.334 106.857ZM172.934 107.363C172.983 107.263 173.134 106.988 173.26 106.71C173.179 106.743 173.11 106.8 173.061 106.872C173.012 106.945 172.985 107.03 172.983 107.118C172.97 107.232 172.937 107.342 172.883 107.444C172.888 107.412 172.922 107.395 172.937 107.363H172.934ZM173.587 106.678C173.44 106.955 173.228 107.494 173.228 107.494C173.228 107.494 173.342 107.51 173.456 107.347C173.49 107.281 173.534 107.22 173.586 107.168L173.587 106.678Z" fill="#B48F7C"></path>
  <path d="M159.396 136.224L137.387 123.514C137.387 114.802 145.447 118.946 145.447 118.946C145.447 118.946 145.447 109.532 153.523 114.198C156.71 116.055 159.146 118.97 160.408 122.437C160.357 122.851 160.393 123.27 160.514 123.669C160.634 124.068 160.837 124.438 161.108 124.754C161.222 125.211 161.308 125.635 161.369 126.01C161.32 126.059 161.287 126.11 161.255 126.141C161.217 126.175 161.184 126.213 161.155 126.255C161.129 126.279 161.107 126.307 161.09 126.337C161.088 126.349 161.083 126.361 161.074 126.37C160.229 127.691 159.687 132.308 159.396 136.224ZM238.15 113.693C238.15 113.693 238.15 104.377 230.09 99.7269C222.03 95.0769 222.014 104.475 222.014 104.475C222.014 104.475 213.954 100.315 213.954 109.043L245.754 127.398C245.754 127.398 248.005 119.387 238.151 113.693H238.15ZM210.104 152.719C210.104 152.719 210.104 143.403 202.044 138.753C193.984 134.103 193.968 143.501 193.968 143.501C193.968 143.501 185.908 139.341 185.908 148.069L217.708 166.424C217.708 166.424 219.974 158.413 210.104 152.719Z" fill="#31A7D6"></path>
  <path d="M175.891 158.707C174.504 160.665 173.835 157.973 173.835 157.973C173.586 153.914 174.226 149.849 175.711 146.063C175.711 146.063 170.996 147.825 167.423 148.771L166.836 155.379C166.836 155.379 164.927 167.632 163.671 170.422C163.26 170.266 162.894 170.011 162.604 169.682C162.314 169.352 162.109 168.956 162.007 168.529C160.702 161.187 162.252 155.803 162.578 155.069C162.855 154.433 160.8 145.737 160.261 143.501C163.394 145.181 170.735 143.941 170.148 143.207L178.387 141.527C178.387 141.527 180.704 141.527 181.275 143.485C181.83 145.394 175.891 158.707 175.891 158.707ZM161.599 126.007C161.599 126.007 162.088 126.17 162.823 126.431L163.443 125.762C163.343 125.729 163.263 125.697 163.166 125.662C162.757 125.599 162.361 125.472 161.991 125.287C161.665 125.662 161.404 125.956 161.24 126.135C161.287 126.089 161.344 126.055 161.406 126.033C161.468 126.012 161.533 126.004 161.599 126.011V126.007ZM161.142 126.268C161.116 126.292 161.094 126.32 161.077 126.35C161.075 126.362 161.07 126.374 161.061 126.383C161.084 126.343 161.111 126.306 161.142 126.272V126.268ZM166.608 125.73C166.455 125.808 166.297 125.875 166.135 125.93L165.858 126.53C166.102 126.272 166.361 126.011 166.608 125.734V125.73ZM170.866 109.496C170.866 109.496 167.929 117.001 167.603 118.196C167.357 118.737 167.039 119.242 166.657 119.696C166.664 120.037 166.625 120.377 166.543 120.707C166.576 120.772 166.592 120.821 166.625 120.887C166.909 121.365 167.139 121.874 167.31 122.404C167.41 122.91 168.044 123.579 168.126 124.166C168.84 123.4 169.597 122.676 170.394 121.996C171.585 121.131 172.466 110.216 172.466 110.216L170.866 109.496ZM194.197 101.828L190.197 99.756C191.878 97.456 193.835 94.421 194.113 92.528C194.309 90.1991 193.839 87.8623 192.759 85.79C192.759 85.79 188.501 90.016 184.911 91.076C184.911 91.076 184.683 91.027 184.34 90.976L179.103 99.639C179.103 99.639 178.222 101.809 180.898 102.462C181.567 102.625 182.676 102.805 183.982 103C185.173 106.084 190.1 115.514 190.1 115.514C190.1 115.514 192.058 115.563 192.335 114.421C192.335 114.421 190.835 106.932 188.335 103.571C191.174 103.93 193.686 104.191 193.686 104.191L194.197 101.828Z" fill="#3D6CED"></path>
  <path d="M178.126 130.058C177.686 130.858 171.714 133.631 169.642 134.577C169.626 138.15 169.707 142.653 170.131 143.159C170.831 144.024 160.456 145.606 159.037 142.229C159.037 142.229 159.637 125.718 161.598 126.012C163.851 126.736 166.035 127.659 168.124 128.769L174.976 128.524C175.043 126.517 175.411 124.531 176.069 122.634L177.7 123.123C177.685 123.141 178.681 129.079 178.126 130.058ZM173.558 80.541C173.509 80.867 173.444 81.21 173.395 81.541C173.627 81.6328 173.823 81.7992 173.95 82.014C174.195 82.422 174.472 84.514 173.232 85.244C173.03 85.37 172.81 85.4635 172.579 85.521C171.932 86.435 170.985 87.0932 169.903 87.381C169.803 88.246 169.397 91.639 169.25 91.917C169.087 92.243 174.03 92.455 173.95 91.917C173.947 91.3318 173.996 90.7475 174.097 90.171C174.847 90.4734 175.622 90.7077 176.414 90.871L176.708 94.281C178.013 95.472 181.208 94.281 181.208 94.281V90.901C181.698 90.46 184.908 91.101 184.908 91.101C188.497 90.04 192.756 85.815 192.756 85.815C192.761 82.515 176.103 80.786 173.558 80.541Z" fill="#BA8623"></path>
  <path d="M164.16 173.294L165.237 174.73C165.237 174.73 164.046 176.13 162.153 174.697C160.26 173.264 162.284 172.152 161.19 171.238C160.096 170.324 160.19 170.047 162.022 168.579C162.129 168.991 162.333 169.372 162.617 169.689C162.901 170.007 163.256 170.253 163.654 170.406C163.808 170.616 163.904 170.864 163.931 171.124C163.907 171.854 163.984 172.584 164.16 173.294ZM177.49 164.043C176.825 162.306 176.29 160.523 175.89 158.708C174.503 160.666 173.834 157.974 173.834 157.974C173.834 157.892 173.818 157.827 173.818 157.746C173.508 158.089 172.089 159.622 172.545 159.932C173.067 160.291 174.829 162.738 176.134 163.88C177.439 165.022 177.555 163.929 177.489 164.043H177.49ZM166.542 120.709C166.542 120.709 167.178 118.523 165.514 118.278C163.834 118.033 161.468 118.996 161.109 120.709C161.109 120.709 160.293 120.578 160.375 121.753C160.457 122.928 160.212 124.331 161.517 125.065C162.102 125.47 162.795 125.691 163.507 125.701C163.507 125.701 164.107 126.011 164.421 125.032C164.421 125.032 162.904 124.706 163.312 123.564C163.72 122.422 164.617 124.184 164.617 124.184L165.237 123.776L164.617 122.276C164.617 122.243 166.215 121.998 166.542 120.709ZM197.133 106.221C196.48 108.505 194.686 108.097 194.686 108.097V106.302C194.399 105.624 194.014 104.992 193.544 104.426C193.493 104.351 193.455 104.268 193.43 104.181C193.593 104.197 193.691 104.214 193.691 104.214L194.213 101.814L193.513 101.455C193.529 101.324 193.546 101.243 193.546 101.243C195.912 101.325 196.156 101.488 195.83 102.875C195.504 104.262 197.786 103.937 197.133 106.221ZM192.32 114.444C192.043 115.586 190.085 115.537 190.085 115.537C190.085 115.537 189.985 115.337 189.808 114.999C189.388 116.647 188.876 118.27 188.274 119.861C188.225 119.747 188.323 120.84 189.628 119.698C190.933 118.556 192.695 116.109 193.217 115.75C193.609 115.489 192.662 114.363 192.173 113.809C192.234 114.019 192.284 114.232 192.32 114.448V114.444ZM171.204 82.1886C171.204 82.1886 172.313 80.8346 172.281 82.3356C172.249 83.8366 171.857 83.7717 171.857 83.7717C171.857 83.7717 173.276 83.7877 173.244 82.7597C173.212 81.7317 174.027 79.6106 173.375 78.7136C172.723 77.8166 171.466 77.6206 171.287 77.8486C171.287 77.8486 168.807 74.5367 166.8 76.2987C166.228 76.8595 165.833 77.5759 165.665 78.3591C165.497 79.1422 165.563 79.9575 165.854 80.7037C165.854 80.7037 166.164 82.8406 166.947 83.0856C166.947 83.0856 166.425 81.4707 166.865 81.1437C168.045 81.808 169.354 82.2089 170.704 82.3186C170.836 82.7036 170.918 83.1038 170.949 83.5097C171.119 83.3407 171.235 83.1242 171.28 82.8885C171.326 82.6529 171.299 82.4089 171.204 82.1886Z" fill="#070C6A"></path>
  <path d="M175.891 158.707C174.504 160.665 173.835 157.973 173.835 157.973C173.586 153.914 174.226 149.849 175.711 146.063C175.711 146.063 170.996 147.825 167.423 148.771L166.836 155.379C166.836 155.379 164.927 167.632 163.671 170.422C163.26 170.266 162.894 170.011 162.604 169.682C162.314 169.352 162.109 168.956 162.007 168.529C160.702 161.187 162.252 155.803 162.578 155.069C162.855 154.433 160.8 145.737 160.261 143.501C163.394 145.181 170.735 143.941 170.148 143.207L178.387 141.527C178.387 141.527 180.704 141.527 181.275 143.485C181.83 145.394 175.891 158.707 175.891 158.707ZM161.599 126.007C161.599 126.007 162.088 126.17 162.823 126.431L163.443 125.762C163.343 125.729 163.263 125.697 163.166 125.662C162.757 125.599 162.361 125.472 161.991 125.287C161.665 125.662 161.404 125.956 161.24 126.135C161.287 126.089 161.344 126.055 161.406 126.033C161.468 126.012 161.533 126.004 161.599 126.011V126.007ZM161.142 126.268C161.116 126.292 161.094 126.32 161.077 126.35C161.075 126.362 161.07 126.374 161.061 126.383C161.084 126.343 161.111 126.306 161.142 126.272V126.268ZM166.608 125.73C166.455 125.808 166.297 125.875 166.135 125.93L165.858 126.53C166.102 126.272 166.361 126.011 166.608 125.734V125.73ZM170.866 109.496C170.866 109.496 167.929 117.001 167.603 118.196C167.357 118.737 167.039 119.242 166.657 119.696C166.664 120.037 166.625 120.377 166.543 120.707C166.576 120.772 166.592 120.821 166.625 120.887C166.909 121.365 167.139 121.874 167.31 122.404C167.41 122.91 168.044 123.579 168.126 124.166C168.84 123.4 169.597 122.676 170.394 121.996C171.585 121.131 172.466 110.216 172.466 110.216L170.866 109.496ZM194.197 101.828L190.197 99.756C191.878 97.456 193.835 94.421 194.113 92.528C194.309 90.1991 193.839 87.8623 192.759 85.79C192.759 85.79 188.501 90.016 184.911 91.076C184.911 91.076 184.683 91.027 184.34 90.976L179.103 99.639C179.103 99.639 178.222 101.809 180.898 102.462C181.567 102.625 182.676 102.805 183.982 103C185.173 106.084 190.1 115.514 190.1 115.514C190.1 115.514 192.058 115.563 192.335 114.421C192.335 114.421 190.835 106.932 188.335 103.571C191.174 103.93 193.686 104.191 193.686 104.191L194.197 101.828Z" fill="#3D6CED"></path>
  <path d="M161.599 126.015C161.599 126.015 162.088 126.178 162.823 126.439L163.443 125.77C163.343 125.737 163.263 125.705 163.166 125.67C162.757 125.606 162.361 125.48 161.991 125.295C161.665 125.67 161.404 125.964 161.24 126.143C161.286 126.097 161.343 126.061 161.405 126.039C161.467 126.017 161.533 126.009 161.599 126.015ZM161.142 126.276C161.116 126.3 161.094 126.328 161.077 126.358C161.075 126.37 161.069 126.382 161.061 126.391C161.084 126.348 161.111 126.309 161.143 126.272L161.142 126.276ZM166.608 125.738C166.455 125.816 166.297 125.882 166.135 125.938L165.858 126.538C166.099 126.272 166.364 126.015 166.609 125.734L166.608 125.738ZM170.866 109.504C170.866 109.504 167.929 117.004 167.603 118.204C167.357 118.745 167.039 119.249 166.657 119.704C166.664 120.044 166.625 120.384 166.543 120.715C166.576 120.78 166.592 120.829 166.625 120.895C166.909 121.373 167.139 121.882 167.31 122.412C167.41 122.918 168.044 123.587 168.126 124.174C168.84 123.408 169.597 122.684 170.394 122.004C171.585 121.139 172.466 110.224 172.466 110.224L170.866 109.504Z" fill="#BA8623"></path>
</svg>